<svg width="58" height="59" viewBox="0 0 58 59" xmlns="http://www.w3.org/2000/svg" xmlns:xlink="http://www.w3.org/1999/xlink"><title>noun_1140212_cc</title><desc>Created using Figma</desc><use xlink:href="#a"/><use xlink:href="#b" transform="translate(31 7)"/><defs><path id="a" fill-rule="evenodd" d="M.969 34.695A.74.74 0 0 0 1 35.724l12.213 11.852a.731.731 0 0 0 .1.866l9.538 9.942a2.01 2.01 0 0 0 1.443.616h.027a2.007 2.007 0 0 0 1.452-.655l7.389-8.118c.372-.409.562-.96.52-1.513a2.028 2.028 0 0 0-.741-1.416l-2.02-1.637 14.421 3.033a4.555 4.555 0 0 0 3.458-.655 4.593 4.593 0 0 0 1.983-2.92L57.9 10.915a4.615 4.615 0 0 0-.652-3.476 4.566 4.566 0 0 0-2.906-1.994L28.525.016a.734.734 0 0 0-.868.57l-3.474 16.695-3.566-3.108a.73.73 0 0 0-1.022.06l-.552.605-1.282-1.18a.731.731 0 0 0-1.037.047l-4.47 4.91a.74.74 0 0 0 .046 1.042l1.282 1.18-.552.607a.74.74 0 0 0 .032 1.028l3.152 3.06-4.349 4.777-3.31-2.886a.732.732 0 0 0-1.022.06l-.552.606-1.282-1.18a.731.731 0 0 0-1.037.047l-4.47 4.912a.74.74 0 0 0 .046 1.041l1.283 1.18-.552.606zm20.893 5.516l7.716 6.256-7.849 8.622-6.88-7.172 7.013-7.706zm-.448-9.622l.004-.008-.94-.912-4.136 4.543 3.654 3.186 1.415-6.801c0-.003.002-.006.003-.008zM32.22 48.827a.538.538 0 0 1-.139.405l-7.389 8.118a.533.533 0 0 1-.389.175.515.515 0 0 1-.394-.165l-1.158-1.207 7.972-8.759 1.298 1.052a.54.54 0 0 1 .2.38zM21.38 38.605a.722.722 0 0 1 .868.023l6.178 5.01h.035l6.286 1.322-9.371-9.768a.73.73 0 0 1-.1-.867l-2.613-2.535-1.385 6.659a.11.11 0 0 1-.01.027.151.151 0 0 0-.01.022l.122.107zM33.924 26.96l7.716 6.256-7.848 8.622-6.881-7.173 7.013-7.705zm2.44 17.313a.533.533 0 0 0 .389-.175l7.387-8.117a.538.538 0 0 0 .14-.407.535.535 0 0 0-.199-.38l-1.298-1.052-7.972 8.759 1.158 1.206c.104.11.24.172.394.166zM28.941 1.61l25.1 5.278c.818.172 1.52.654 1.977 1.358.458.703.616 1.544.444 2.365l-7.117 34.204a3.126 3.126 0 0 1-1.35 1.988c-.7.46-1.534.62-2.354.447l-8.337-1.754c.195-.106.378-.236.53-.403l7.388-8.117a2.03 2.03 0 0 0 .52-1.513 2.027 2.027 0 0 0-.74-1.417l-10.695-8.67a.722.722 0 0 0-.867-.024l-7.99-6.966L28.941 1.61zm-11.63 13.634l-3.48 3.823.74.68 3.48-3.822-.74-.681zm2.883.513l12.23 10.663-6.182 6.793L14.595 21.91l5.6-6.152zm-.772 12.887l-2.152-2.088-4.296 4.72 2.26 1.97 4.188-4.602zm-11.29.364l12.231 10.664-6.183 6.792L2.534 35.162l5.6-6.153zm-2.883-.513L1.77 32.32l.742.681 3.48-3.822-.742-.682z"/><path id="b" fill-rule="evenodd" d="M7.504 18.782l.008.002a.29.29 0 0 1 .019.005h.003A9.624 9.624 0 0 0 9.52 19a9.427 9.427 0 0 0 5.179-1.552 9.436 9.436 0 0 0 4.098-6.003C19.87 6.32 16.572 1.277 11.446.204a9.434 9.434 0 0 0-7.144 1.348A9.436 9.436 0 0 0 .204 7.555a9.438 9.438 0 0 0 1.348 7.143 9.431 9.431 0 0 0 5.952 4.084zM3.016 4.505l2.601.544a12.09 12.09 0 0 0-1.094 2.743l-2.876-.601a8.123 8.123 0 0 1 1.369-2.686zm11.73 5.425l2.875.601a8.134 8.134 0 0 0-.18-3.01l-2.598-.543c.083.914.066 1.903-.096 2.952zm1.385 4.374l-2.71-.567c.433-.75.796-1.591 1.054-2.53l2.88.602a8.124 8.124 0 0 1-1.224 2.495zm-7.403-4.298l-3.199-.67a9.38 9.38 0 0 0 .043 2.759l2.605.545.551-2.634zm-.818 3.912l-.562 2.684a12.407 12.407 0 0 1-1.452-3.105l2.014.421zm1.278.267l-.561 2.684a12.494 12.494 0 0 0 2.571-2.263l-2.01-.42zm.267-1.277l.552-2.635 3.189.667a9.418 9.418 0 0 1-1.137 2.512l-2.604-.544zm.819-3.914l3.194.669c.156-1.063.146-2.06.027-2.967l-2.626-.549-.595 2.847zm.863-4.124l.614-2.933a11.72 11.72 0 0 1 1.476 3.37l-2.09-.437zM9.86 4.602l.615-2.94a11.917 11.917 0 0 0-2.7 2.504l2.085.436zM9.59 5.88l-.596 2.847-3.199-.668a10.78 10.78 0 0 1 1.17-2.728l2.625.549zm-5.38 5.93a10.675 10.675 0 0 1 .049-2.739L1.38 8.47a8.14 8.14 0 0 0 .12 2.774l2.71.568zm-1.566 2.173a8.32 8.32 0 0 1-.693-1.311l2.495.521c.359 1.506.97 2.767 1.53 3.694a8.126 8.126 0 0 1-3.332-2.904zM9.77 17.68a8.126 8.126 0 0 0 5.377-2.249l-2.495-.521a13.11 13.11 0 0 1-2.882 2.77zm7.162-11.6l-2.29-.479a12.994 12.994 0 0 0-1.141-3.25 8.218 8.218 0 0 1 3.431 3.73zm-8.24-4.73a8.15 8.15 0 0 0-3.675 1.294 8.387 8.387 0 0 0-.96.745l2.295.48a13.039 13.039 0 0 1 2.34-2.52z"/></defs></svg>