<svg width="62" height="39" viewBox="0 0 62 39" xmlns="http://www.w3.org/2000/svg" xmlns:xlink="http://www.w3.org/1999/xlink"><title>noun_1267879_cc</title><desc>Created using Figma</desc><use xlink:href="#a"/><defs><path id="a" fill-rule="evenodd" d="M61.797 19.113L51.329.597a1.23 1.23 0 0 0-1.603-.468l-4.809 2.756a1.26 1.26 0 0 0-.465 1.708l.962 1.95a3.33 3.33 0 0 1-2.324.564c-.76-.113-1.51-.286-2.244-.515l-.064-.018c-3.534-.953-9.38-2.53-15.117.018a11.206 11.206 0 0 0-3.03 1.885c-.393 0-1.089-.107-1.874-.228l-.006-.001a97.79 97.79 0 0 0-.829-.125 8.877 8.877 0 0 1-3.03-2.031L17.57 4.9a1.26 1.26 0 0 0-.465-1.709L12.295.435a1.213 1.213 0 0 0-.945-.112c-.32.08-.593.29-.753.58L.16 19.436a1.23 1.23 0 0 0-.112.95c.079.323.288.597.577.758l4.81 2.756c.185.107.395.163.609.16.112.017.225.017.337 0 .32-.079.593-.289.753-.58l1.138-1.998a36.784 36.784 0 0 0 3.062 3.562l-.257.37a3.233 3.233 0 0 0-.577 1.838 3.228 3.228 0 0 0 1.33 2.61c.53.393 1.171.603 1.828.597h.129c-.049.32-.049.646 0 .967a3.225 3.225 0 0 0 1.298 2.063c.53.39 1.17.598 1.828.596.325 0 .65-.048.961-.145.181.928.759 1.73 1.58 2.192a3.191 3.191 0 0 0 2.684.209 3.223 3.223 0 0 0 1.25 1.853 3.066 3.066 0 0 0 1.828.58h.545a3.108 3.108 0 0 0 2.052-1.289v-.097A14.064 14.064 0 0 0 33.696 39a6.257 6.257 0 0 0 2.1-.387 4.59 4.59 0 0 0 2.677-2.191h.53a4.391 4.391 0 0 0 2.516-.774 4.352 4.352 0 0 0 1.699-2.562c1-.107 1.926-.584 2.597-1.338.501-.57.878-1.24 1.106-1.966a4.642 4.642 0 0 0 3.206-1.724c.503-.776.67-1.724.465-2.627a3.492 3.492 0 0 0-.417-1.048 10.99 10.99 0 0 0 3.783-2.965l.93 1.611c.164.29.434.505.754.597a1.2 1.2 0 0 0 .336 0c.213-.006.421-.061.61-.161l4.808-2.756c.29-.165.502-.437.593-.758a1.23 1.23 0 0 0-.192-.838zm-54.278.323l-1.603 2.723-4.184-2.272 10.13-17.872 4.185 2.401-8.528 15.02zm5.274 9.024a1.597 1.597 0 0 0 2.164-.354l1.474-2.079c.335-.7.126-1.54-.496-1.998a1.597 1.597 0 0 0-2.197.37l-.737 1.032-.577.838a1.617 1.617 0 0 0 .369 2.191zm5.626 2.982l-.208.29a1.602 1.602 0 0 1-1.514.964 1.603 1.603 0 0 1-1.457-1.05 1.617 1.617 0 0 1 .422-1.751l.577-.79 1.315-1.853 1.73-2.45a1.596 1.596 0 0 1 2.212-.532c.349.239.581.613.642 1.032.065.413-.033.834-.272 1.176l-.577.822-2.87 4.142zm3.864 2.755l.384-.531 1.507-2.127.962-1.37c.255-.335.354-.764.272-1.177a1.608 1.608 0 0 0-1.164-1.223 1.597 1.597 0 0 0-1.609.498l-2.87 4.061a1.618 1.618 0 0 0-.46 1.751c.217.623.792 1.05 1.448 1.076a1.602 1.602 0 0 0 1.53-.958zm5.764.106l-1.003 1.393-.129.194-.4.548a1.597 1.597 0 0 1-1.973.259 1.616 1.616 0 0 1-.705-1.871l.129-.21 1.522-2.143a1.597 1.597 0 0 1 2.165-.338c.68.505.85 1.45.399 2.162l-.005.006zm18.361-6.052a3.423 3.423 0 0 0 2.324-1.048 1.83 1.83 0 0 0 .24-1.402 1.613 1.613 0 0 0-.624-.999.778.778 0 0 1-.16-.145h-.097a67.29 67.29 0 0 0-17.329-11.28l-2.26.595-1.603 2.144a5.397 5.397 0 0 1-3.11 1.886 3.482 3.482 0 0 1-3.206-.967 3.59 3.59 0 0 1-.945-3.369 9.463 9.463 0 0 1 1.73-3.674l-1.602-.226a9.196 9.196 0 0 1-3.655-2.24L9.12 19.871a38.227 38.227 0 0 0 3.207 3.771l.128-.161a3.195 3.195 0 0 1 4.424-.742c.45.31.806.74 1.026 1.241l.145-.193a3.197 3.197 0 0 1 3.29-1.218 3.215 3.215 0 0 1 2.432 2.54c.048.31.048.624 0 .934.71-.028 1.41.182 1.988.596a3.225 3.225 0 0 1 1.283 2.063 3.37 3.37 0 0 1-.097 1.499 3.212 3.212 0 0 1 2.982 2.643 3.237 3.237 0 0 1-.545 2.385l-.513.79a9.336 9.336 0 0 0 6.412 1.144 3.079 3.079 0 0 0 1.603-1.209l-6.14-3.11a.808.808 0 0 1-.301-1.054.8.8 0 0 1 1.023-.38l6.412 3.223c.057.038.11.081.16.129h.096a2.92 2.92 0 0 0 2.357-.387 2.66 2.66 0 0 0 1.058-1.612l-8.015-4.496a.814.814 0 0 1-.313-1.104.805.805 0 0 1 1.098-.314l8.368 4.706a2.608 2.608 0 0 0 1.876-.822 3.68 3.68 0 0 0 .753-1.257l-9.233-5.834a.789.789 0 0 1-.257-1.112.8.8 0 0 1 1.106-.242l9.474 5.963zm2.533-5.06l-.005-.005a9.305 9.305 0 0 0 4.109-3.218L46.28 8.01c-.949.62-2.08.894-3.206.773a15.436 15.436 0 0 1-2.517-.564l-.006-.001c-3.318-.903-8.878-2.415-14.1-.111a10.762 10.762 0 0 0-2.902 1.853 7.727 7.727 0 0 0-2.373 4.045c-.156.678.043 1.39.53 1.885.46.467 1.123.668 1.763.532a3.94 3.94 0 0 0 2.196-1.321l1.603-2.224a1.33 1.33 0 0 1 .673-.452l2.485-.66c.106-.016.214-.016.32 0 .148-.033.302-.033.45 0a67.282 67.282 0 0 1 17.74 11.421l-.011.005h.016zm5.61-3.852l1.507 2.659 4.168-2.401L50.127 1.709l-4.168 2.45 1.523 2.69 7.07 12.49z"/></defs></svg>