<svg width="46" height="46" viewBox="0 0 46 46" xmlns="http://www.w3.org/2000/svg" xmlns:xlink="http://www.w3.org/1999/xlink"><title>noun_1016684_cc</title><desc>Created using Figma</desc><use xlink:href="#a" transform="translate(15.333 16.87)"/><use xlink:href="#b" transform="translate(18.758 22.5)"/><use xlink:href="#c"/><use xlink:href="#d" transform="translate(16.1 9.2)"/><use xlink:href="#e" transform="translate(8.433 5.37)"/><defs><path id="a" fill-rule="evenodd" d="M15.333 3.834v8.796c0 1.745-4.587 4.313-7.322 5.689a.776.776 0 0 1-.689 0C4.588 16.942 0 14.373 0 12.628V3.835c0-.303.179-.578.455-.701l6.9-3.067a.765.765 0 0 1 .623 0l6.9 3.067a.768.768 0 0 1 .455.7zm-13.8.498v8.298c.176.626 2.947 2.507 6.134 4.143 3.165-1.625 5.923-3.495 6.133-4.17V4.332L7.667 1.606 1.533 4.332z"/><path id="b" d="M3.33 5.64L.82 4.053 0 5.348l3.067 1.938a.768.768 0 0 0 .986-.143L9.419 1.01 8.265 0 3.33 5.64z"/><path id="c" fill-rule="evenodd" d="M45.233 0H.767A.767.767 0 0 0 0 .767V39.1c0 .423.343.767.767.767h9.826L9.276 42.6a.766.766 0 0 0 .813 1.09l4.291-.694 2.023 2.696a.767.767 0 0 0 1.322-.17l2.733-6.676c.823.163 1.672.253 2.542.253.87 0 1.719-.09 2.541-.253l2.734 6.677a.766.766 0 0 0 1.322.17l2.023-2.697 4.291.693a.766.766 0 1 0 .813-1.09l-1.317-2.733h9.826A.767.767 0 0 0 46 39.1V.767A.767.767 0 0 0 45.233 0zM16.818 43.692l-1.489-1.985a.766.766 0 0 0-.735-.297l-3.299.533 2.989-6.203a.59.59 0 0 0 .062.05l.053.043c.259.229.528.446.805.654l.074.055.01.009.009.006.013.01.123.091a13.154 13.154 0 0 0 1.012.656l.003.002.083.05c.767.44 1.579.808 2.433 1.087l-2.146 5.24zm1.172-7.29a11.48 11.48 0 0 0 2.181.798c.907.23 1.852.367 2.829.367.977 0 1.922-.136 2.829-.367a11.446 11.446 0 0 0 2.181-.799l.052-.024.007-.004a11.71 11.71 0 0 0 .844-.462l.072-.044a11.463 11.463 0 0 0 1.905-1.456c.145-.137.288-.278.427-.424l.11-.12a11.925 11.925 0 0 0 .616-.718l.087-.117.007-.01.008-.01.048-.065c.166-.22.325-.444.474-.674.037-.058.072-.117.108-.176l.012-.021.037-.062c.134-.219.264-.441.382-.668.037-.071.07-.144.105-.216l.051-.108c.104-.216.206-.432.295-.653.037-.09.07-.182.102-.274l.001-.003.006-.015.005-.016.03-.085.002-.003c.075-.207.15-.414.214-.625.036-.12.065-.241.095-.363l.028-.115.029-.11c.04-.156.08-.312.112-.472.032-.162.055-.328.078-.494v-.003l.017-.123.025-.166V27.5a5.35 5.35 0 0 0 .042-.306c.036-.371.057-.747.057-1.127 0-6.341-5.159-11.5-11.5-11.5s-11.5 5.159-11.5 11.5c0 .38.02.756.057 1.128.01.104.026.208.043.312l.024.162.016.112v.002c.023.17.047.34.08.506.031.16.071.317.112.474l.028.108.035.144v.001l.001.002c.027.111.055.222.087.33.063.212.139.42.214.626l.001.003.03.085.006.015.006.016v.003c.034.092.066.184.103.274a11.2 11.2 0 0 0 .346.76c.034.073.068.146.105.217.118.227.248.449.382.668l.05.085.004.005.003.006c.033.054.066.11.1.163.148.23.308.453.474.674l.05.068.002.002.006.009c.03.04.06.082.092.122a11.705 11.705 0 0 0 .616.718c.036.041.072.082.11.12a11.775 11.775 0 0 0 .642.62l.01.01.005.004.023.02c.515.46 1.067.87 1.652 1.227l.072.044c.05.031.1.062.15.091a10.811 10.811 0 0 0 .692.37l.06.03zm13.416 5.008a.769.769 0 0 0-.736.297l-1.488 1.985-2.146-5.239a12.953 12.953 0 0 0 2.52-1.14l.005-.003c.022-.014.044-.028.067-.04.322-.192.635-.394.939-.612l.155-.115.074-.056c.277-.208.546-.425.805-.654a.94.94 0 0 1 .058-.046.94.94 0 0 0 .057-.047l2.989 6.203-3.3-.533zm3.262-3.077h9.799v-36.8H1.533v36.8h9.8l1.812-3.759a.288.288 0 0 1-.02-.024 12.9 12.9 0 0 1-.545-.689l-.055-.071c-.057-.075-.114-.15-.168-.226a12.695 12.695 0 0 1-.42-.64l-.013-.022a11.42 11.42 0 0 1-.225-.37 14.307 14.307 0 0 1-.559-1.091 12.844 12.844 0 0 1-.806-2.36l-.027-.109c-.035-.146-.07-.292-.099-.441a13.11 13.11 0 0 1-.116-.754c-.007-.057-.016-.114-.024-.17-.014-.097-.029-.193-.038-.29a12.98 12.98 0 0 1-.063-1.25c0-7.187 5.846-13.034 13.033-13.034 7.187 0 13.033 5.847 13.033 13.034 0 .42-.023.836-.062 1.25-.009.098-.023.194-.037.29a8.434 8.434 0 0 0-.025.17v.005c-.034.25-.068.502-.116.75a9.82 9.82 0 0 1-.1.444l-.025.107c-.05.209-.1.418-.161.625-.058.197-.123.391-.19.585a12.138 12.138 0 0 1-.684 1.621c-.105.21-.214.416-.33.619-.071.123-.146.243-.221.363l-.018.03c-.135.216-.272.43-.42.639-.049.068-.1.136-.151.203l-.072.094c-.17.226-.342.45-.526.665l-.017.022-.021.026 1.81 3.758z"/><path id="d" d="M0 0h13.8v1.533H0V0z"/><path id="e" d="M0 0h29.133v1.533H0V0z"/></defs></svg>