<svg width="69" height="39" viewBox="0 0 69 39" xmlns="http://www.w3.org/2000/svg" xmlns:xlink="http://www.w3.org/1999/xlink"><title>noun_1150002_cc</title><desc>Created using Figma</desc><use xlink:href="#a"/><defs><path id="a" fill-rule="evenodd" d="M68.27 37.533h-3.158l-16.56-29.25a.727.727 0 0 0-1.27 0l-8.706 15.374L25.394.371a.727.727 0 0 0-1.269 0L3.085 37.533H.73A.733.733 0 0 0 .73 39h67.538a.733.733 0 0 0 .731-.734.731.731 0 0 0-.73-.733zM47.916 10.13l4.883 8.626-1.99 2.91-4.186-2.5a.73.73 0 0 0-.927.15l-1.95 2.263-1.49-1.454 5.66-9.995zm-17.934 1.313L24.76 2.22l-7.42 13.099 2.078 2.028 2.623-3.836a.73.73 0 0 1 1.175-.04l3.86 4.87 2.905-6.897zM4.767 37.531l11.829-20.893 2.426 2.368a.73.73 0 0 0 1.112-.111l2.553-3.736 4.01 5.062a.731.731 0 0 0 1.245-.173l2.946-6.999 7.05 12.453 1.123 1.983 5.686 10.046H4.767zm37.621-7.14l4.041 7.136h16.996L53.6 20.174l-1.976 2.89a.729.729 0 0 1-.977.214L46.4 20.741l-2.056 2.387a.733.733 0 0 1-1.062.046l-1.771-1.73-2.093 3.697 2.97 5.25z"/></defs></svg>