<svg width="54" height="36" viewBox="0 0 54 36" xmlns="http://www.w3.org/2000/svg" xmlns:xlink="http://www.w3.org/1999/xlink"><title></title><desc>Created using Figma</desc><use xlink:href="#a" transform="translate(0 8)"/><defs><path id="a" d="M46.29 12.203h-3.235c.218-.578.734-1.976 1.547-4.195l.07-.211c.062-.156.14-.36.234-.61s.164-.453.211-.609l.281 1.29.891 4.335zM12.444 10.68l-1.36-6.914c-.17-.844-.757-1.266-1.757-1.266h-6.28L3 2.805c4.86 1.234 8.008 3.86 9.445 7.875zM16.64 2.5l-3.797 10.266-.399-2.086c-.406-1.094-1.07-2.102-1.992-3.024-.922-.937-1.945-1.633-3.07-2.086l3.164 11.953h4.101L20.766 2.5H16.64zm3.257 15.047h3.891L26.227 2.5h-3.891l-2.438 15.047zm18-14.672c-1.078-.422-2.242-.633-3.492-.633-1.922 0-3.492.461-4.71 1.383-1.22.922-1.837 2.117-1.852 3.586-.016 1.594 1.117 2.953 3.398 4.078.75.36 1.274.68 1.57.961.297.281.446.586.446.914 0 .469-.235.828-.703 1.078-.47.25-1.008.375-1.617.375-1.344 0-2.563-.258-3.657-.773l-.515-.258-.54 3.375c1.157.531 2.602.797 4.337.797 2.03.015 3.656-.445 4.875-1.383 1.234-.938 1.867-2.188 1.898-3.75 0-1.656-1.094-3.016-3.281-4.078-.766-.39-1.32-.719-1.664-.985-.344-.265-.516-.562-.516-.89 0-.344.188-.64.563-.89.39-.266.945-.4 1.664-.4 1.093-.015 2.062.173 2.906.563l.351.188.54-3.258zM47.86 2.5h-3c-1.015 0-1.695.422-2.039 1.266l-5.765 13.78h4.078l.82-2.25h4.969c.078.345.234 1.095.469 2.25H51L47.86 2.5zM54-5v30c0 .813-.297 1.516-.89 2.11-.594.593-1.297.89-2.11.89H3c-.813 0-1.516-.297-2.11-.89C.298 26.515 0 25.812 0 25V-5c0-.813.297-1.516.89-2.11C1.485-7.702 2.188-8 3-8h48c.813 0 1.516.297 2.11.89.593.594.89 1.298.89 2.11z"/></defs></svg>