<svg width="36" height="36" viewBox="0 0 36 36" xmlns="http://www.w3.org/2000/svg" xmlns:xlink="http://www.w3.org/1999/xlink"><title></title><desc>Created using Figma</desc><use xlink:href="#a" transform="translate(0 8)"/><defs><path id="a" d="M21 1.75v10.5a.73.73 0 0 1-.21.54.73.73 0 0 1-.54.21h-7.5a.73.73 0 0 1-.54-.21.73.73 0 0 1-.21-.54v-1.5a.73.73 0 0 1 .21-.54.73.73 0 0 1 .54-.21H18V1.75a.73.73 0 0 1 .21-.54.73.73 0 0 1 .54-.21h1.5a.73.73 0 0 1 .54.21c.14.142.21.321.21.54zm8.04 14.648c1.14-1.953 1.71-4.085 1.71-6.398 0-2.313-.57-4.445-1.71-6.398a12.71 12.71 0 0 0-4.642-4.641C22.445-2.18 20.313-2.75 18-2.75c-2.313 0-4.445.57-6.398 1.71A12.71 12.71 0 0 0 6.96 3.603C5.82 5.555 5.25 7.687 5.25 10c0 2.313.57 4.445 1.71 6.398a12.71 12.71 0 0 0 4.642 4.641c1.953 1.14 4.085 1.711 6.398 1.711 2.313 0 4.445-.57 6.398-1.71a12.71 12.71 0 0 0 4.641-4.642zM33.585.977C35.196 3.727 36 6.734 36 10s-.805 6.281-2.414 9.047a17.918 17.918 0 0 1-6.563 6.539C24.273 27.196 21.266 28 18 28s-6.281-.805-9.047-2.414a17.974 17.974 0 0 1-6.539-6.54C.804 16.282 0 13.267 0 10 0 6.734.805 3.727 2.414.977a17.92 17.92 0 0 1 6.54-6.563C11.718-7.196 14.733-8 18-8c3.266 0 6.273.805 9.023 2.414A17.864 17.864 0 0 1 33.586.977z"/></defs></svg>