<svg width="53" height="32" viewBox="0 0 53 32" xmlns="http://www.w3.org/2000/svg" xmlns:xlink="http://www.w3.org/1999/xlink"><title></title><desc>Created using Figma</desc><use xlink:href="#a" transform="translate(0 6)"/><defs><path id="a" d="M26.25 1.063c1.395 0 2.707.41 3.938 1.23 1.148.82 2.132 1.969 2.87 3.363.657 1.477 1.067 2.953 1.067 4.594 0 1.64-.41 3.2-1.066 4.594a8.958 8.958 0 0 1-2.871 3.363c-1.231.82-2.543 1.23-3.938 1.23-1.477 0-2.79-.41-3.938-1.23-1.23-.82-2.214-1.887-2.87-3.363-.739-1.395-1.067-2.953-1.067-4.594 0-1.64.328-3.117 1.066-4.594a8.203 8.203 0 0 1 2.872-3.363c1.148-.82 2.46-1.23 3.937-1.23zm3.938 13.453v-.657c0-.656-.329-.984-.985-.984h-1.23v-6.89c0-.657-.328-.985-.985-.985h-.984c-.492 0-.82.164-1.149.492l-1.804 1.64c-.492.493-.574.903-.082 1.313l.492.492c.164.247.41.41.656.41.164 0 .41-.081.656-.327l.247-.247-.082.82v3.282h-1.231c-.656 0-.902.328-.902.984v.657c0 .656.246.984.902.984h5.496c.656 0 .985-.328.985-.984zM50.53-5.5c.492 0 .985.246 1.395.574.328.41.574.903.574 1.395v27.48a1.98 1.98 0 0 1-.574 1.395c-.41.41-.903.574-1.395.574H1.97c-.574 0-1.067-.164-1.395-.574-.41-.328-.574-.82-.574-1.395V-3.53c0-.492.164-.985.574-1.395.328-.328.82-.574 1.395-.574h48.56zM42 22.063c0-1.805.574-3.282 1.887-4.594 1.312-1.313 2.87-1.969 4.675-1.969V5c-1.804 0-3.363-.574-4.675-1.887C42.574 1.801 42 .243 42-1.562H10.5c0 1.804-.656 3.363-1.969 4.675C7.22 4.426 5.742 5 3.937 5v10.5c1.805 0 3.282.656 4.594 1.969 1.313 1.312 1.969 2.789 1.969 4.593H42z"/></defs></svg>