<svg width="16" height="11" viewBox="0 0 16 11" xmlns="http://www.w3.org/2000/svg" xmlns:xlink="http://www.w3.org/1999/xlink"><title></title><desc>Created using Figma</desc><use xlink:href="#a" transform="translate(0 -3)" fill="#24A9FF"/><defs><path id="a" d="M14.857 8.857c-.905-1.405-2.038-2.455-3.402-3.152.364.62.545 1.289.545 2.01 0 1.1-.393 2.044-1.179 2.83-.78.78-1.72 1.17-2.821 1.17-1.101 0-2.045-.39-2.83-1.17C4.39 9.759 4 8.815 4 7.715c0-.721.182-1.39.545-2.01-1.363.697-2.497 1.747-3.402 3.152.792 1.22 1.783 2.194 2.973 2.92A7.397 7.397 0 0 0 8 12.857a7.35 7.35 0 0 0 3.875-1.08 9.244 9.244 0 0 0 2.982-2.92zM8.304 5.732a.413.413 0 0 0 .125-.303.413.413 0 0 0-.125-.304A.413.413 0 0 0 8 5a2.62 2.62 0 0 0-1.92.804 2.605 2.605 0 0 0-.794 1.91c0 .12.041.22.125.304a.413.413 0 0 0 .303.125c.12 0 .22-.042.304-.125a.413.413 0 0 0 .125-.304c0-.512.181-.95.545-1.312.363-.363.8-.545 1.312-.545.119 0 .22-.042.304-.125zm7.517 2.51c.12.207.179.413.179.615 0 .203-.06.408-.179.616a9.497 9.497 0 0 1-3.366 3.295C11.051 13.589 9.565 14 8 14s-3.054-.414-4.464-1.241A9.546 9.546 0 0 1 .179 9.473 1.236 1.236 0 0 1 0 8.857c0-.202.06-.408.179-.616a9.546 9.546 0 0 1 3.357-3.286c1.41-.827 2.899-1.24 4.464-1.24 1.565 0 3.05.413 4.455 1.24a9.522 9.522 0 0 1 3.366 3.286z"/></defs></svg>