<svg width="152" height="147" viewBox="0 0 152 147" xmlns="http://www.w3.org/2000/svg" xmlns:xlink="http://www.w3.org/1999/xlink"><title>noun_1119431_cc</title><desc>Created using Figma</desc><use xlink:href="#a" transform="translate(36.5)" fill="#C9D7E2"/><use xlink:href="#b" transform="translate(.4 113.75)" fill="#C9D7E2"/><defs><path id="a" d="M39.55 0c-2.1 0-3.5 1.4-3.5 3.5v86.45l-30.1-30.1c-1.4-1.4-3.5-1.4-4.9 0-1.4 1.4-1.4 3.5 0 4.9L37.1 100.8c.35.35.7.7 1.05.7.35 0 .7.35 1.4.35.35 0 1.05 0 1.4-.35.35 0 .7-.35 1.05-.7l36.05-36.05c1.4-1.4 1.4-3.5 0-4.9-1.4-1.4-3.5-1.4-4.9 0l-30.1 30.1V3.5c0-2.1-1.4-3.5-3.5-3.5z"/><path id="b" d="M10.5 33.25h130.55c5.95 0 10.5-4.55 10.5-10.5V3.5c0-2.1-1.4-3.5-3.5-3.5s-3.5 1.4-3.5 3.5v19.25c0 2.1-1.4 3.5-3.5 3.5H10.5c-2.1 0-3.5-1.4-3.5-3.5V3.5C7 1.4 5.6 0 3.5 0S0 1.4 0 3.5v19.25c0 5.95 4.55 10.5 10.5 10.5z"/></defs></svg>