<svg width="246" height="48" viewBox="0 0 246 48" xmlns="http://www.w3.org/2000/svg" xmlns:xlink="http://www.w3.org/1999/xlink"><title>logo</title><desc>Created using Figma</desc><use xlink:href="#a" transform="translate(54 22)" fill="#FFF"/><use xlink:href="#b" transform="translate(58 6)" fill="#FFF"/><use xlink:href="#c" fill="url(#d)"/><use xlink:href="#e" transform="translate(23 2)" fill="#FFF"/><use xlink:href="#f" transform="translate(0 20)" fill="url(#g)"/><use xlink:href="#h" transform="translate(6 26)" fill="url(#i)"/><use xlink:href="#j" transform="translate(21 20)" fill="url(#k)"/><use xlink:href="#l" transform="translate(0 37)" fill="#FFF"/><use xlink:href="#m" transform="translate(0 41)" fill="#1AA6E0"/><use xlink:href="#n" transform="translate(2 42)" fill="#FFF"/><use xlink:href="#o" transform="translate(0 45)" fill="#1AA6E0"/><use xlink:href="#p" transform="translate(3 45)" fill="#FFF"/><defs><linearGradient id="d" x2="1" gradientUnits="userSpaceOnUse" gradientTransform="matrix(-10.4964 5.63871 -5.80958 -10.1877 20.06 14.35)"><stop offset="0" stop-color="#FC0"/><stop offset="1" stop-color="#F6A200"/></linearGradient><linearGradient id="g" x2="1" gradientUnits="userSpaceOnUse" gradientTransform="matrix(-13.2123 13.3884 -16.2573 -10.8807 25.185 11.789)"><stop offset="0" stop-color="#00569A"/><stop offset=".3" stop-color="#005496"/><stop offset=".62" stop-color="#004D89"/><stop offset=".95" stop-color="#004173"/><stop offset="1" stop-color="#003F6F"/></linearGradient><linearGradient id="i" x2="1" gradientUnits="userSpaceOnUse" gradientTransform="matrix(2.37864 5.15369 -4.29474 2.85437 1.151 .394)"><stop offset="0" stop-color="#2B83BF"/><stop offset=".3" stop-color="#277FBB"/><stop offset=".62" stop-color="#1A72AE"/><stop offset=".95" stop-color="#045D98"/><stop offset="1" stop-color="#005994"/></linearGradient><linearGradient id="k" x2="1" gradientUnits="userSpaceOnUse" gradientTransform="matrix(121.03 218.039 -202.465 130.34 716.56 529.156)"><stop offset="0" stop-color="#2B83BF"/><stop offset=".3" stop-color="#277FBB"/><stop offset=".62" stop-color="#1A72AE"/><stop offset=".95" stop-color="#045D98"/><stop offset="1" stop-color="#005994"/></linearGradient><path id="a" fill-rule="evenodd" d="M14.666 13.421a5.902 5.902 0 0 1-.613 2.782 5.682 5.682 0 0 1-1.63 1.931 7.006 7.006 0 0 1-2.305 1.129 9.478 9.478 0 0 1-2.607.365H0V.186h7.505C8.458.178 9.408.3 10.327.551a6.525 6.525 0 0 1 2.277 1.128 5.202 5.202 0 0 1 1.516 1.919c.384.872.57 1.817.546 2.768v7.056zm-4.581-6.18a3.192 3.192 0 0 0-.29-1.426 2.66 2.66 0 0 0-.728-.93 2.973 2.973 0 0 0-1.017-.524 3.934 3.934 0 0 0-1.118-.166H4.554v11.49h2.378a3.93 3.93 0 0 0 1.118-.166c.37-.107.716-.286 1.017-.524a2.66 2.66 0 0 0 .728-.943c.205-.453.303-.945.29-1.44v-5.37zm23.06 6.24a5.902 5.902 0 0 1-.627 2.795 5.87 5.87 0 0 1-1.691 1.99 7.455 7.455 0 0 1-2.466 1.189c-.96.265-1.953.397-2.95.392a10.693 10.693 0 0 1-2.938-.392 7.647 7.647 0 0 1-2.465-1.188 5.796 5.796 0 0 1-1.705-1.991 5.901 5.901 0 0 1-.633-2.795V6.18a5.32 5.32 0 0 1 .674-2.768 6.089 6.089 0 0 1 1.792-1.919A7.896 7.896 0 0 1 22.615.365 10.71 10.71 0 0 1 25.39 0a10.15 10.15 0 0 1 2.796.398 8.136 8.136 0 0 1 2.492 1.168 6.003 6.003 0 0 1 1.779 1.992c.466.858.698 1.821.674 2.794v7.169l.013-.04zm-4.582-6.32a3.185 3.185 0 0 0-.29-1.426 2.66 2.66 0 0 0-.727-.93 2.96 2.96 0 0 0-1.017-.524 3.893 3.893 0 0 0-2.25 0c-.37.111-.714.29-1.017.525a2.61 2.61 0 0 0-.748.929 3.199 3.199 0 0 0-.29 1.427v5.503c-.015.49.085.979.29 1.427.174.362.43.68.748.929.303.235.648.413 1.017.524.366.111.748.167 1.131.166a3.922 3.922 0 0 0 1.119-.166c.37-.107.716-.286 1.017-.524a2.68 2.68 0 0 0 .727-.93c.206-.447.305-.935.29-1.426V7.162zm22.905 3.42l-1.86 3.49-1.744 2.975H44.63l-1.758-3.087-1.779-3.359h-.114v9.034h-4.554V.186h4.183l3.268 6.325 2.317 4.647h.168l2.405-4.8 3.12-6.152h4.183v19.428h-4.554v-9.06l-.047.006zM75.16 4.227v15.406h-4.554V4.221h-5.012V.186h14.551V4.22l-4.985.007zm8.024 12.154h1.63c.426.033.849-.093 1.186-.352.254-.231.454-.514.586-.83l.168-.451L80.866.186h4.756l1.745 5.31 1.516 4.74h.141l1.812-5.138L92.581.186h4.554L91.49 14.47a20.43 20.43 0 0 1-1.287 2.781 6.092 6.092 0 0 1-1.347 1.693 4.187 4.187 0 0 1-1.664.83 8.769 8.769 0 0 1-2.088.225H83.21v-3.617h-.026zm20.566-7.846h3.369a2.302 2.302 0 0 0 1.832-.664c.367-.43.561-.978.546-1.54a2.323 2.323 0 0 0-.532-1.54 2.298 2.298 0 0 0-1.846-.663h-3.369v4.407zm4.042-8.357a6.944 6.944 0 0 1 2.837.525 5.293 5.293 0 0 1 1.919 1.393 5.598 5.598 0 0 1 1.092 1.992c.23.74.346 1.51.343 2.283.001.78-.14 1.553-.417 2.283a5.974 5.974 0 0 1-3.22 3.372 6.573 6.573 0 0 1-2.695.525h-3.927v7.082H99.17V.186l8.622-.007zm19.826 7.965l-7.538 11.49h-4.042V.186h4.527v11.656h.088L128.245.186h4.096v19.448h-4.554V8.144h-.169zm14.147-8.13a11.75 11.75 0 0 1 2.695.298 6.796 6.796 0 0 1 2.25.943 4.885 4.885 0 0 1 1.563 1.692c.414.793.616 1.678.586 2.569a4.174 4.174 0 0 1-.728 2.456 5.13 5.13 0 0 1-1.879 1.64c.824.325 1.529.89 2.021 1.619.498.739.757 1.609.741 2.496a5.947 5.947 0 0 1-.613 2.82 5.389 5.389 0 0 1-1.644 1.892 7.022 7.022 0 0 1-2.378 1.076c-.918.228-1.862.342-2.809.338a16.782 16.782 0 0 1-4.035-.49 9.888 9.888 0 0 1-1.759-.618 6.34 6.34 0 0 1-1.421-.89l2.351-3.318a4.66 4.66 0 0 0 1.004.59c.384.17.78.313 1.185.425.397.11.799.193 1.206.252.346.054.695.082 1.044.087a4.086 4.086 0 0 0 2.506-.664c.519-.38.822-.982.816-1.62a1.825 1.825 0 0 0-.802-1.652 4.017 4.017 0 0 0-2.203-.525h-2.809V7.92h2.694a3.406 3.406 0 0 0 2.062-.564c.507-.357.798-.94.775-1.554a1.527 1.527 0 0 0-.27-.929 2.077 2.077 0 0 0-.674-.59 3.215 3.215 0 0 0-.943-.326 5.644 5.644 0 0 0-1.044-.1 7.514 7.514 0 0 0-2.021.313c-.723.2-1.393.556-1.96 1.042l-2.176-3.186A9.082 9.082 0 0 1 138.161.53a13.158 13.158 0 0 1 3.638-.511l-.034-.007zM167 10.566l-1.859 3.498-1.718 2.98h-3.233l-1.745-3.08-1.779-3.358h-.114v9.027h-4.547V.186h4.183l3.227 6.325 2.317 4.647h.169l2.405-4.8 3.119-6.152h4.183v19.428h-4.554v-9.06l-.054-.007zm18.91 5.224h-6.359l-1.172 3.837h-4.898L180.44.179h4.716L192 19.628h-4.871l-1.205-3.837h-.014zm-5.214-3.67h4.042l-.404-1.328-1.577-5.363h-.114l-1.577 5.363-.37 1.328z"/><path id="b" fill-rule="evenodd" d="M6.062 10.671a90.49 90.49 0 0 1-.344-1.02c-.113-.34-.227-.68-.344-1.02H1.62l-.675 2.013H0A3959.497 3959.497 0 0 1 3.058 1.88h.945l3.018 8.792h-.959zM3.463 3.067a91.734 91.734 0 0 1-.769 2.363L2.24 6.772l-.344 1.033h3.2c-.077-.255-.187-.6-.33-1.033a80.355 80.355 0 0 0-.46-1.342l-.459-1.343-.33-1.02h-.055zm21.13-.342v3.154c.009.674-.04 1.348-.148 2.014a5.85 5.85 0 0 1-.426 1.436c-.162.37-.39.71-.675 1-.274.27-.588.496-.931.671L22 10.215c.27-.16.518-.357.736-.584a2.8 2.8 0 0 0 .533-.84c.162-.402.27-.824.324-1.254.079-.605.115-1.215.108-1.826V1.906h5.32v8.765h-.905V2.718l-3.524.007zm23.743 0v7.946h-.912v-7.94h-2.66v-.825h6.205v.826l-2.633-.007zm23.445 7.933c-.121-.34-.236-.68-.344-1.02-.108-.34-.223-.68-.344-1.02h-3.774l-.675 2.013h-.945a4008.957 4008.957 0 0 1 3.058-8.765h.945l3.072 8.765-.993.027zm-2.599-7.604a91.734 91.734 0 0 1-.769 2.362l-.453 1.342-.344 1.034h3.2a39.62 39.62 0 0 0-.33-1.034 80.364 80.364 0 0 0-.46-1.342l-.459-1.342-.33-1.02h-.055zM90.65.014c.037.233.154.446.33.603.406.341 1 .341 1.405 0 .173-.163.283-.381.31-.617h.675a2.794 2.794 0 0 1-.135.51 1.509 1.509 0 0 1-.303.497 1.601 1.601 0 0 1-.52.376c-.245.105-.51.155-.777.147a1.954 1.954 0 0 1-.796-.147 1.49 1.49 0 0 1-.83-.872A1.762 1.762 0 0 1 89.9 0l.75.013zm-1.229 9.08l1.6-2.443 3.132-4.758h.885v8.778h-.898V3.43h-.034l-1.7 2.611-3.025 4.631h-.885V1.906h.885v7.195l.04-.007zM114.4 1.805a3.861 3.861 0 0 1 2.376.725l-.459.671c-.267-.2-.569-.35-.891-.443a3.525 3.525 0 0 0-1.026-.154c-.277 0-.553.042-.817.127a2.108 2.108 0 0 0-.715.396c-.22.183-.395.412-.513.672-.134.323-.199.67-.189 1.02v2.798c-.009.35.057.698.195 1.02.231.526.675.928 1.222 1.108.254.087.521.133.79.134.354 0 .707-.05 1.047-.147.335-.096.647-.258.918-.477l.445.671a3.64 3.64 0 0 1-.999.524 4.028 4.028 0 0 1-1.397.228 3.672 3.672 0 0 1-1.249-.202 2.92 2.92 0 0 1-.993-.583 2.694 2.694 0 0 1-.675-.913 2.936 2.936 0 0 1-.236-1.195V4.691a2.747 2.747 0 0 1 .911-2.087 2.93 2.93 0 0 1 .993-.584 3.65 3.65 0 0 1 1.235-.201l.027-.014zm18.308 8.853V1.906h.885v3.852h1.64c.152-.001.304-.02.452-.053a1.414 1.414 0 0 0 .878-.591 2.48 2.48 0 0 0 .331-.671l.844-2.53h.857l-.803 2.516a4.028 4.028 0 0 1-.52 1.081c-.181.275-.45.48-.763.584.365.082.684.3.891.61.218.344.384.717.493 1.108l.871 2.86h-.932l-.83-2.732a2.671 2.671 0 0 0-.304-.705 1.514 1.514 0 0 0-.398-.423 1.308 1.308 0 0 0-.459-.208 2.114 2.114 0 0 0-.5-.06h-1.742v4.134l-.891-.02zM155.539 9.1l1.6-2.443 3.125-4.752h.885v8.765h-.885V3.43h-.054l-1.701 2.61-3.045 4.631h-.884V1.906h.898v7.195h.061zM179.612.02c.037.233.154.447.331.604.405.341.999.341 1.404 0 .173-.163.283-.382.31-.617h.676a2.897 2.897 0 0 1-.135.51 1.52 1.52 0 0 1-.304.496c-.146.16-.323.287-.52.376-.245.105-.51.156-.776.148a1.956 1.956 0 0 1-.797-.148 1.53 1.53 0 0 1-.837-.872 1.783 1.783 0 0 1-.108-.51l.756.013zm-1.229 9.08l1.6-2.442 3.133-4.759H184v8.772h-.898V3.43h-.054l-1.701 2.61-3.045 4.631h-.884V1.906h.898v7.195h.067z"/><path id="c" fill-rule="evenodd" d="M34 31.648V1.13C34 .506 33.65 0 33.218 0H.782C.35 0 0 .513 0 1.13V33a82.065 82.065 0 0 0 2.49-2.393 34.618 34.618 0 0 0 3.485-3.98 53.805 53.805 0 0 0 2.477 2.683 52.58 52.58 0 0 0 2.47 2.38l.322-.285c.542-.437-.364.298 1.997-1.741 2.36-2.04 7.333-7.22 8.342-9.342 2.758 3.814 8.191 8.385 12.129 11.048l.288.277z"/><path id="e" d="M4.5 9a4.5 4.5 0 1 0 0-9 4.5 4.5 0 0 0 0 9z"/><path id="f" fill-rule="evenodd" d="M0 28h34V10.989l-.301-.282C29.767 8.126 24.343 3.697 21.589 0c-1.007 2.057-5.986 7.057-8.356 9.073-2.37 2.017-1.452 1.244-1.993 1.667l-.322.276A73.148 73.148 0 0 1 8.452 8.71a55.204 55.204 0 0 1-2.473-2.602A33.817 33.817 0 0 1 2.5 9.967a59.12 59.12 0 0 1-2.5 2.34V28z"/><path id="h" fill-rule="evenodd" d="M5 4.957a74.01 74.01 0 0 1-2.497-2.33A55.808 55.808 0 0 1 0 0v.333c.201 2.675 1.976 5.88 3.412 5.656A3.042 3.042 0 0 0 5 4.957z"/><path id="j" fill-rule="evenodd" d="M13 14v-2.382l-.316-.299C8.566 8.59 2.884 3.903 0 0a13.167 13.167 0 0 0 2.26 6.037C5.144 10.573 9.779 13.957 13 14z"/><path id="l" fill-rule="evenodd" d="M0 1.973a4.038 4.038 0 0 1 1.099-.17L3.454.374A3.721 3.721 0 0 0 2.548.24 5.878 5.878 0 0 0 0 .783v1.22-.03zM3.434.369L3.57.41c.452.161.882.366 1.284.61.214.136.445.25.687.342.185.06.38.093.577.098a4.292 4.292 0 0 0 1.531-.269c.563-.195.92-.409 1.45-.61a5.315 5.315 0 0 1 2.334-.457c.357.008.709.068 1.044.176a7.07 7.07 0 0 1 1.284.61c.214.136.445.25.687.342.185.06.38.093.577.098 1.663.05 2.693-1.28 4.808-1.22.356.008.709.068 1.044.177a7.02 7.02 0 0 1 1.284.61c.214.135.444.25.686.341.186.06.38.093.577.098a4.274 4.274 0 0 0 1.484-.287c.563-.195.92-.409 1.449-.61a5.315 5.315 0 0 1 2.335-.457c.356.008.709.068 1.043.176a6.98 6.98 0 0 1 1.285.61c.214.136.444.25.686.342.186.06.38.093.577.098a4.287 4.287 0 0 0 1.483-.293L34 .85v1.165a9.142 9.142 0 0 1-1.525.61 5.243 5.243 0 0 1-1.524.183 3.443 3.443 0 0 1-.962-.147 5.598 5.598 0 0 1-1.167-.61 2.909 2.909 0 0 0-1.476-.494 4.007 4.007 0 0 0-1.278.195c-.886.275-1.442.702-2.479.983a5.235 5.235 0 0 1-1.524.183 3.427 3.427 0 0 1-.962-.147 5.585 5.585 0 0 1-1.167-.61 2.909 2.909 0 0 0-1.477-.494c-1.572-.043-2.815 1.275-4.848 1.22a3.427 3.427 0 0 1-.961-.146 5.622 5.622 0 0 1-1.168-.61 2.908 2.908 0 0 0-1.476-.494 4 4 0 0 0-1.278.195c-.886.274-1.442.701-2.479.982a5.235 5.235 0 0 1-1.524.183 3.427 3.427 0 0 1-.962-.146 5.593 5.593 0 0 1-1.167-.61 2.921 2.921 0 0 0-1.394-.44h-.103L3.434.37z"/><path id="m" fill-rule="evenodd" d="M.007 2.605a3.278 3.278 0 0 1 1.13-.232L3.524.5a3.006 3.006 0 0 0-.931-.144A4.84 4.84 0 0 0 0 1.068v1.6l.007-.063zM3.525.5l.143.056c.462.21.902.48 1.314.8.227.18.47.33.726.448.192.089.396.14.602.152a3.514 3.514 0 0 0 1.506-.384c.568-.256.937-.536 1.471-.8a4.35 4.35 0 0 1 2.375-.6c.364.01.724.088 1.067.232.462.21.902.479 1.315.8.227.18.47.33.725.448.19.079.388.122.588.128 1.698.064 2.738-1.68 4.908-1.6.364.01.724.088 1.067.232.461.211.902.48 1.314.8.227.18.47.33.726.448.19.08.392.123.595.128a3.508 3.508 0 0 0 1.506-.384c.568-.256.937-.536 1.471-.8a4.351 4.351 0 0 1 2.375-.6c.364.01.724.088 1.068.232.46.21.901.479 1.314.8.227.18.47.33.725.448.19.079.388.122.588.128A2.81 2.81 0 0 0 34 1.436v1.6a6.606 6.606 0 0 1-.814.353 4.21 4.21 0 0 1-1.554.24c-.33.036-.662.011-.986-.072a5.482 5.482 0 0 1-1.19-.8 2.572 2.572 0 0 0-1.506-.648 3.235 3.235 0 0 0-1.3.256c-.904.36-1.465.92-2.519 1.288a4.198 4.198 0 0 1-1.553.24 2.786 2.786 0 0 1-.979-.192 5.447 5.447 0 0 1-1.19-.8 2.578 2.578 0 0 0-1.506-.648c-1.602-.056-2.854 1.672-4.928 1.6a2.792 2.792 0 0 1-.979-.192 5.476 5.476 0 0 1-1.19-.8 2.572 2.572 0 0 0-1.506-.648 3.229 3.229 0 0 0-1.3.256c-.904.36-1.465.92-2.519 1.288a4.204 4.204 0 0 1-1.553.24 2.792 2.792 0 0 1-.98-.192 5.46 5.46 0 0 1-1.19-.8 2.572 2.572 0 0 0-1.506-.648h-.11L3.526.5z"/><path id="n" fill-rule="evenodd" d="M1.08.759l.312-.264A2.73 2.73 0 0 0 .459.342a3.575 3.575 0 0 0-.459 0c.38.038.749.18 1.08.417zm0 0l.312-.264.141.06c.451.224.882.51 1.284.85.211.188.438.348.675.476.133.06.272.1.413.119h-.446a2.532 2.532 0 0 1-.96-.204 5.334 5.334 0 0 1-1.161-.85L1.08.758zM8.87.145c.489.07.955.303 1.35.672.359.342.75.628 1.163.85.309.131.633.2.959.204.144.01.288.01.432 0-.136-.02-.27-.06-.398-.119a3.546 3.546 0 0 1-.676-.476 6.425 6.425 0 0 0-1.283-.85A2.724 2.724 0 0 0 9.377.18h-.46L8.87.146zm8.41 0c.49.071.955.303 1.35.672.359.343.75.628 1.163.85.31.131.633.2.96.204h.452a1.44 1.44 0 0 1-.42-.119 3.538 3.538 0 0 1-.675-.476 6.42 6.42 0 0 0-1.283-.85 2.729 2.729 0 0 0-1.04-.247 3.424 3.424 0 0 0-.453 0L17.28.146zM26.075.01c.49.07.956.302 1.351.672.358.342.748.628 1.162.85.31.131.633.2.96.204H30a1.46 1.46 0 0 1-.412-.119 3.546 3.546 0 0 1-.676-.476 6.42 6.42 0 0 0-1.283-.85 2.734 2.734 0 0 0-1.04-.247 1.321 1.321 0 0 0-.514-.034z"/><path id="o" fill-rule="evenodd" d="M0 1.973a4.15 4.15 0 0 1 1.137-.182L3.472.378a3.843 3.843 0 0 0-.918-.133A5.907 5.907 0 0 0 .027.77v1.203H0zM3.472.372l.144.042c.463.16.906.362 1.321.604.228.136.471.25.726.339.19.059.388.092.59.096a4.342 4.342 0 0 0 1.485-.266C8.3.994 8.656.783 9.183.583A5.333 5.333 0 0 1 11.532.13c.362.008.72.068 1.061.175a7.4 7.4 0 0 1 1.322.604c.228.136.47.25.726.339.19.059.388.092.589.096 1.684.049 2.677-1.268 4.834-1.208.363.009.72.068 1.062.175.463.16.906.363 1.322.604.227.136.47.25.725.339.19.06.389.092.59.096a4.324 4.324 0 0 0 1.485-.29c.562-.193.918-.404 1.445-.604a5.333 5.333 0 0 1 2.35-.453c.361.009.72.068 1.06.175.464.16.907.362 1.322.605.228.135.471.248.726.338.19.06.388.092.589.097A3.975 3.975 0 0 0 34 1.006v1.209a8.147 8.147 0 0 1-1.048.368 5.347 5.347 0 0 1-1.534.181 3.594 3.594 0 0 1-.972-.145 5.941 5.941 0 0 1-1.199-.604 3.067 3.067 0 0 0-1.506-.49 4.06 4.06 0 0 0-1.28.194c-.884.272-1.432.695-2.473.973a5.339 5.339 0 0 1-1.534.181 3.578 3.578 0 0 1-.972-.145 5.917 5.917 0 0 1-1.198-.604 3.067 3.067 0 0 0-1.507-.49c-1.589-.042-2.8 1.263-4.855 1.209a3.587 3.587 0 0 1-.973-.145 5.98 5.98 0 0 1-1.198-.604 3.068 3.068 0 0 0-1.506-.49 4.06 4.06 0 0 0-1.281.194c-.89.272-1.431.694-2.472.972-.5.153-1.026.23-1.555.23a3.587 3.587 0 0 1-.972-.145 5.934 5.934 0 0 1-1.198-.604 3.067 3.067 0 0 0-1.507-.49h-.11L3.472.371z"/><path id="p" fill-rule="evenodd" d="M.34.823L.5.64A2.348 2.348 0 0 0 0 .446l.195.206.146.16v.01zm0 0L.5.64l.147.08a6.9 6.9 0 0 1 1.341 1.143L2.121 2a1.971 1.971 0 0 1-.696-.24A5.23 5.23 0 0 1 .355.8L.34.823zM9.109.229l.195.205c.376.46.784.844 1.216 1.143.226.126.459.207.696.24l-.132-.137A6.874 6.874 0 0 0 9.74.537a2.388 2.388 0 0 0-.647-.274l.014-.034zm8.67 0l.195.205c.376.46.784.845 1.217 1.143.225.126.458.207.695.24l-.132-.137A6.92 6.92 0 0 0 18.41.537a2.391 2.391 0 0 0-.647-.274l.014-.034zM26.893 0l.195.206c.376.46.785.844 1.217 1.143.224.13.458.214.695.251l-.132-.137A6.903 6.903 0 0 0 27.526.32a2.412 2.412 0 0 0-.633-.274V0z"/></defs></svg>