<svg width="383" height="75" viewBox="0 0 383 75" version="1.1" xmlns="http://www.w3.org/2000/svg" xmlns:xlink="http://www.w3.org/1999/xlink">
<title>logo</title>
<desc>Created using Figma</desc>
<g id="Canvas" transform="translate(-2110 -691)">
<g id="logo">
<g id="Shape">
<use xlink:href="#path0_fill" transform="translate(2194 725)" fill="#00569A"/>
</g>
<g id="Shape">
<use xlink:href="#path1_fill" transform="translate(2200 700)" fill="#00569A"/>
</g>
<g id="Shape">
<use xlink:href="#path2_fill" transform="translate(2110 691)" fill="url(#paint2_linear)"/>
</g>
<g id="Oval">
<use xlink:href="#path3_fill" transform="translate(2146 694)" fill="#FFFFFF"/>
</g>
<g id="Shape">
<use xlink:href="#path4_fill" transform="translate(2110 722)" fill="url(#paint4_linear)"/>
</g>
<g id="Shape">
<use xlink:href="#path5_fill" transform="translate(2119 732)" fill="url(#paint5_linear)"/>
</g>
<g id="Shape">
<use xlink:href="#path6_fill" transform="translate(2143 722)" fill="url(#paint6_linear)"/>
</g>
<g id="Shape">
<use xlink:href="#path7_fill" transform="translate(2110 749)" fill="#FFFFFF"/>
</g>
<g id="Shape">
<use xlink:href="#path8_fill" transform="translate(2110 755)" fill="#1AA6E0"/>
</g>
<g id="Shape">
<use xlink:href="#path9_fill" transform="translate(2113 757)" fill="#FFFFFF"/>
</g>
<g id="Shape">
<use xlink:href="#path10_fill" transform="translate(2110 761)" fill="#1AA6E0"/>
</g>
<g id="Shape">
<use xlink:href="#path11_fill" transform="translate(2115 761)" fill="#FFFFFF"/>
</g>
</g>
</g>
<defs>
<linearGradient id="paint2_linear" x1="0" y1="0" x2="1" y2="0" gradientUnits="userSpaceOnUse" gradientTransform="matrix(-16.362 8.88525 -9.05612 -16.0533 31.2696 22.612)">
<stop offset="0" stop-color="#FFCC00"/>
<stop offset="1" stop-color="#F6A200"/>
</linearGradient>
<linearGradient id="paint4_linear" x1="0" y1="0" x2="1" y2="0" gradientUnits="userSpaceOnUse" gradientTransform="matrix(-20.5957 21.0389 -25.3423 -17.0983 39.2589 18.5252)">
<stop offset="0" stop-color="#00569A"/>
<stop offset="0.3" stop-color="#005496"/>
<stop offset="0.62" stop-color="#004D89"/>
<stop offset="0.95" stop-color="#004173"/>
<stop offset="1" stop-color="#003F6F"/>
</linearGradient>
<linearGradient id="paint5_linear" x1="0" y1="0" x2="1" y2="0" gradientUnits="userSpaceOnUse" gradientTransform="matrix(3.80583 7.73054 -6.87159 4.28155 1.84189 0.590739)">
<stop offset="0" stop-color="#2B83BF"/>
<stop offset="0.3" stop-color="#277FBB"/>
<stop offset="0.62" stop-color="#1A72AE"/>
<stop offset="0.95" stop-color="#045D98"/>
<stop offset="1" stop-color="#005994"/>
</linearGradient>
<linearGradient id="paint6_linear" x1="0" y1="0" x2="1" y2="0" gradientUnits="userSpaceOnUse" gradientTransform="matrix(186.2 342.633 -311.485 204.82 1102.4 831.531)">
<stop offset="0" stop-color="#2B83BF"/>
<stop offset="0.3" stop-color="#277FBB"/>
<stop offset="0.62" stop-color="#1A72AE"/>
<stop offset="0.95" stop-color="#045D98"/>
<stop offset="1" stop-color="#005994"/>
</linearGradient>
<path id="path0_fill" fill-rule="evenodd" d="M 22.8386 20.8032C 22.8791 22.2946 22.5516 23.7735 21.8839 25.114C 21.277 26.2858 20.4093 27.309 19.3451 28.1079C 18.2703 28.9044 17.0536 29.4975 15.7573 29.857C 14.4379 30.2325 13.0711 30.423 11.6973 30.4228L 0 30.4228L 0 0.288101L 11.6868 0.288101C 13.1718 0.275075 14.6513 0.465536 16.0825 0.853963C 17.3708 1.20129 18.576 1.79577 19.6284 2.60299C 20.6441 3.39688 21.4531 4.41595 21.9888 5.57634C 22.5869 6.92879 22.8769 8.39292 22.8386 9.8666L 22.8386 20.8032ZM 15.7048 11.2246C 15.7278 10.4633 15.5735 9.70675 15.2537 9.01263C 14.9903 8.45563 14.6032 7.96348 14.1207 7.57225C 13.6518 7.20245 13.1137 6.92632 12.5366 6.75947C 11.972 6.59079 11.3853 6.50413 10.7951 6.50226L 7.0918 6.50226L 7.0918 24.3115L 10.7951 24.3115C 11.3853 24.3096 11.972 24.2229 12.5366 24.0543C 13.1138 23.8877 13.652 23.6115 14.1207 23.2415C 14.6057 22.8444 14.993 22.345 15.2537 21.7805C 15.5721 21.0787 15.7263 20.3158 15.7048 19.548L 15.7048 11.2246ZM 51.6151 20.8957C 51.6525 22.3957 51.3177 23.8822 50.6395 25.2272C 50.0086 26.4365 49.1087 27.4913 48.0062 28.3137C 46.8545 29.1567 45.5522 29.7813 44.1666 30.1553C 42.6712 30.5666 41.1246 30.7709 39.5716 30.7623C 38.0254 30.7722 36.4855 30.5679 34.9976 30.1553C 33.6143 29.7751 32.3132 29.151 31.1579 28.3137C 30.045 27.4965 29.1372 26.4408 28.5037 25.2272C 27.8219 23.8831 27.4834 22.3966 27.5176 20.8957L 27.5176 9.5785C 27.4684 8.08201 27.8308 6.60011 28.5667 5.28824C 29.2656 4.11011 30.2179 3.09547 31.3572 2.31489C 32.5299 1.51492 33.8366 0.922936 35.2179 0.565862C 36.6266 0.189972 38.0802 -0.000319862 39.5401 4.03585e-07C 41.0138 0.00292358 42.4796 0.21076 43.8938 0.617304C 45.284 0.998199 46.597 1.61071 47.7754 2.42806C 48.9228 3.24036 49.8694 4.2952 50.545 5.51458C 51.2703 6.84529 51.6318 8.33757 51.5941 9.846L 51.5941 20.9575L 51.6151 20.8957ZM 44.4813 11.1012C 44.5047 10.3398 44.3504 9.58317 44.0302 8.88916C 43.7668 8.33216 43.3796 7.84001 42.8971 7.44879C 42.4286 7.07853 41.8903 6.80236 41.313 6.636C 40.7484 6.46761 40.1617 6.38096 39.5715 6.37879C 38.9742 6.37773 38.3802 6.46443 37.8091 6.636C 37.2343 6.80847 36.6972 7.08407 36.225 7.44879C 35.7289 7.83461 35.3304 8.32753 35.0605 8.88916C 34.741 9.5834 34.5867 10.3398 34.6094 11.1012L 34.6094 19.6303C 34.5867 20.3916 34.741 21.148 35.0605 21.8423C 35.331 22.4035 35.7294 22.8963 36.225 23.2826C 36.6976 23.6468 37.2346 23.9223 37.8091 24.0954C 38.38 24.2676 38.9742 24.3543 39.5715 24.3526C 40.1617 24.3511 40.7485 24.2644 41.313 24.0954C 41.8901 23.9286 42.4283 23.6524 42.8971 23.2826C 43.3781 22.89 43.765 22.3982 44.0302 21.8423C 44.35 21.1481 44.5043 20.3916 44.4813 19.6303L 44.4813 11.1012ZM 80.1502 16.3997L 77.2547 21.8114L 74.5376 26.4206L 69.502 26.4206L 66.7639 21.6365L 63.9943 16.4306L 63.8159 16.4306L 63.8159 30.4331L 56.7241 30.4331L 56.7241 0.288086L 63.2389 0.288086L 68.327 10.0929L 71.9359 17.2948L 72.1981 17.2948L 75.9434 9.8563L 80.8006 0.318951L 87.3155 0.318951L 87.3155 30.4331L 80.2236 30.4331L 80.2236 16.3894L 80.1502 16.3997ZM 117.046 6.55372L 117.046 30.4331L 109.955 30.4331L 109.955 6.54343L 102.149 6.54343L 102.149 0.288086L 124.81 0.288086L 124.81 6.54343L 117.046 6.55372ZM 129.541 25.3918L 132.08 25.3918C 132.743 25.4435 133.402 25.2488 133.926 24.8465C 134.323 24.4883 134.634 24.0493 134.839 23.5604L 135.101 22.8608L 125.932 0.288086L 133.339 0.288086L 136.056 8.51881L 138.417 15.8647L 138.637 15.8647L 141.459 7.9015L 144.176 0.288086L 151.268 0.288086L 142.476 22.4287C 141.918 23.9124 141.249 25.3533 140.473 26.7396C 139.938 27.7294 139.227 28.6178 138.375 29.3631C 137.621 29.9784 136.735 30.4182 135.783 30.6492C 134.718 30.895 133.626 31.0125 132.531 30.999L 129.583 30.999L 129.583 25.3918L 129.541 25.3918ZM 161.57 13.2309L 166.815 13.2309C 167.875 13.324 168.923 12.9465 169.669 12.2021C 170.239 11.5347 170.542 10.6858 170.519 9.81514C 170.542 8.94797 170.248 8.10127 169.69 7.42823C 168.94 6.67662 167.883 6.29838 166.815 6.39939L 161.57 6.39939L 161.57 13.1383L 161.57 13.2309ZM 167.864 0.277775C 169.379 0.238126 170.884 0.515198 172.281 1.09056C 173.432 1.57872 174.454 2.3176 175.271 3.25112C 176.045 4.15635 176.623 5.20646 176.97 6.33764C 177.329 7.48438 177.509 8.67747 177.505 9.87685C 177.507 11.0853 177.286 12.2841 176.855 13.4161C 175.974 15.7523 174.165 17.6382 171.84 18.6426C 170.517 19.2041 169.086 19.4813 167.644 19.4554L 161.528 19.4554L 161.528 30.4331L 154.436 30.4331L 154.436 0.288063L 167.864 0.277775ZM 198.739 12.6239L 187 30.4331L 180.705 30.4331L 180.705 0.288086L 187.755 0.288086L 187.755 18.3545L 187.891 18.3545L 199.715 0.288086L 206.093 0.288086L 206.093 30.4331L 199.001 30.4331L 199.001 12.6239L 198.739 12.6239ZM 220.77 0.0205565C 222.182 0.0134707 223.591 0.168858 224.966 0.483535C 226.215 0.756843 227.403 1.25198 228.47 1.94449C 229.483 2.61589 230.318 3.51549 230.904 4.56803C 231.549 5.79736 231.863 7.16787 231.817 8.54964C 231.85 9.90302 231.454 11.2332 230.684 12.3563C 229.936 13.4271 228.931 14.3 227.757 14.8976C 229.041 15.4024 230.138 16.2779 230.904 17.408C 231.68 18.5526 232.083 19.9019 232.058 21.2764C 232.106 22.7883 231.778 24.289 231.103 25.649C 230.496 26.8098 229.619 27.8143 228.543 28.5812C 227.427 29.3612 226.171 29.9267 224.84 30.2479C 223.41 30.6018 221.94 30.7781 220.465 30.7726C 219.392 30.7731 218.32 30.7078 217.255 30.5771C 216.219 30.4529 215.193 30.2639 214.181 30.0112C 213.24 29.7787 212.323 29.4583 211.443 29.0544C 210.646 28.6933 209.902 28.2297 209.23 27.6758L 212.891 22.5316C 213.371 22.8998 213.896 23.2075 214.454 23.4472C 215.052 23.7113 215.669 23.9314 216.301 24.1057C 216.918 24.2746 217.545 24.4052 218.178 24.4967C 218.717 24.5792 219.26 24.6239 219.805 24.6304C 221.185 24.7174 222.557 24.3559 223.707 23.6016C 224.516 23.0122 224.987 22.079 224.977 21.0912C 225.057 20.0799 224.581 19.1033 223.728 18.5294C 222.689 17.9372 221.497 17.6547 220.298 17.7166L 215.923 17.7166L 215.923 12.274L 220.119 12.274C 221.258 12.3324 222.385 12.0254 223.329 11.3995C 224.119 10.8469 224.572 9.94238 224.536 8.99204C 224.557 8.4802 224.41 7.97519 224.116 7.55167C 223.839 7.17538 223.481 6.86292 223.067 6.636C 222.608 6.39325 222.112 6.22312 221.598 6.13187C 221.063 6.03038 220.518 5.97871 219.972 5.97754C 218.906 5.99526 217.846 6.158 216.825 6.4611C 215.699 6.77233 214.656 7.32391 213.772 8.07638L 210.384 3.13794C 211.81 2.07512 213.43 1.28939 215.157 0.823052C 216.998 0.296752 218.905 0.0300088 220.822 0.0308449L 220.77 0.0205565ZM 260.068 16.3791L 257.173 21.8011L 254.498 26.4206L 249.462 26.4206L 246.745 21.6468L 243.975 16.4409L 243.797 16.4409L 243.797 30.4331L 236.716 30.4331L 236.716 0.288086L 243.231 0.288086L 248.256 10.0929L 251.865 17.2948L 252.127 17.2948L 255.872 9.8563L 260.729 0.318951L 267.244 0.318951L 267.244 30.4331L 260.152 30.4331L 260.152 16.3894L 260.068 16.3791ZM 289.516 24.4761L 279.613 24.4761L 277.788 30.4228L 270.161 30.4228L 280.998 0.277771L 288.341 0.277771L 299 30.4228L 291.415 30.4228L 289.537 24.4761L 289.516 24.4761ZM 281.396 18.7866L 287.691 18.7866L 287.061 16.7289L 284.606 8.41589L 284.428 8.41589L 281.973 16.7289L 281.396 18.7866Z"/>
<path id="path1_fill" fill-rule="evenodd" d="M 9.42281 16.4918C 9.24093 15.9663 9.06254 15.4407 8.88766 14.9152C 8.71277 14.3897 8.53439 13.8642 8.35251 13.3386L 2.51834 13.3386L 1.46903 16.4503L 0 16.4503C 0.797476 14.1684 1.58796 11.9107 2.37144 9.67727C 3.15493 7.44379 3.9489 5.18612 4.75338 2.90424L 6.22241 2.90424L 10.9128 16.4918L 9.42281 16.4918ZM 5.38289 4.74011C 5.26396 5.12043 5.09607 5.64595 4.87922 6.31668C 4.66236 6.98742 4.43151 7.6789 4.18667 8.39112L 3.48363 10.4656L 2.94849 12.0629L 7.92222 12.0629C 7.8033 11.6687 7.63191 11.1363 7.40805 10.4656C 7.1842 9.79482 6.94636 9.10334 6.69452 8.39112L 5.98099 6.31668C 5.75714 5.62521 5.58575 5.09968 5.46683 4.74011L 5.38289 4.74011ZM 38.2264 4.21108L 38.2264 9.08601C 38.2399 10.1279 38.1627 11.1689 37.9955 12.1977C 37.8719 12.9624 37.6497 13.7083 37.3345 14.4173C 37.0818 14.9908 36.7263 15.5144 36.2851 15.9628C 35.8594 16.3801 35.3709 16.73 34.8371 17L 34.197 15.7864C 34.618 15.5384 35.0028 15.2348 35.3408 14.8841C 35.6928 14.504 35.9735 14.065 36.1697 13.5875C 36.4207 12.9649 36.5899 12.3131 36.6734 11.6479C 36.7956 10.7125 36.8517 9.76983 36.8413 8.8267L 36.8413 2.94568L 45.1098 2.94568L 45.1098 16.4917L 43.7038 16.4917L 43.7038 4.20071L 38.2264 4.21108ZM 75.1307 4.21108L 75.1307 16.4917L 73.7141 16.4917L 73.7141 4.22146L 69.5798 4.22146L 69.5798 2.94568L 79.223 2.94568L 79.223 4.22146L 75.1307 4.21108ZM 111.573 16.471C 111.384 15.9455 111.206 15.42 111.038 14.8945C 110.87 14.3689 110.692 13.8434 110.503 13.3179L 104.637 13.3179L 103.588 16.4295L 102.119 16.4295C 102.916 14.1477 103.707 11.89 104.49 9.65652C 105.274 7.42304 106.068 5.16536 106.872 2.88348L 108.341 2.88348L 113.116 16.4295L 111.573 16.471ZM 107.533 4.71936C 107.414 5.09967 107.246 5.6252 107.03 6.29593C 106.813 6.96667 106.582 7.65814 106.337 8.37037L 105.634 10.4448L 105.099 12.0421L 110.073 12.0421C 109.954 11.648 109.782 11.1155 109.558 10.4448C 109.335 9.77407 109.097 9.08259 108.845 8.37037L 108.131 6.29593C 107.908 5.60445 107.736 5.07893 107.617 4.71936L 107.533 4.71936ZM 140.901 0.0207444C 140.959 0.381079 141.141 0.710746 141.415 0.95424C 142.045 1.48111 142.968 1.48111 143.598 0.95424C 143.867 0.701799 144.038 0.364115 144.081 0L 145.13 0C 145.085 0.268693 145.015 0.532621 144.92 0.788286C 144.815 1.07194 144.654 1.33262 144.448 1.55583C 144.222 1.80191 143.947 1.99958 143.64 2.13667C 143.26 2.29939 142.848 2.3773 142.433 2.36486C 142.009 2.3756 141.587 2.29785 141.195 2.13667C 140.88 2.00368 140.597 1.80564 140.366 1.55583C 140.163 1.33221 140.006 1.07146 139.904 0.788286C 139.809 0.535142 139.753 0.269506 139.737 0L 140.901 0.0207444ZM 138.992 14.0543L 141.479 10.2788L 146.347 2.92493L 147.722 2.92493L 147.722 16.4917L 146.326 16.4917L 146.326 5.30016L 146.274 5.30016L 143.63 9.33493L 138.929 16.4917L 137.554 16.4917L 137.554 2.94567L 138.929 2.94567L 138.929 14.0646L 138.992 14.0543ZM 177.816 2.79011C 179.139 2.74933 180.438 3.1433 181.51 3.9103L 180.796 4.94752C 180.38 4.6382 179.911 4.40624 179.411 4.26295C 178.894 4.10576 178.357 4.02536 177.816 4.02439C 177.385 4.0234 176.957 4.08991 176.546 4.22147C 176.139 4.35155 175.761 4.55947 175.434 4.83342C 175.093 5.11551 174.82 5.47004 174.637 5.87064C 174.428 6.37004 174.328 6.90715 174.343 7.44721L 174.343 11.7724C 174.329 12.3134 174.433 12.8511 174.647 13.349C 175.005 14.1606 175.696 14.783 176.546 15.0604C 176.941 15.1955 177.356 15.2656 177.774 15.2678C 178.325 15.2683 178.872 15.1914 179.401 15.0396C 179.922 14.8924 180.407 14.6418 180.828 14.3032L 181.52 15.3404C 181.048 15.6887 180.524 15.9616 179.967 16.1495C 179.27 16.3935 178.535 16.5129 177.795 16.5021C 177.135 16.5108 176.478 16.4055 175.854 16.191C 175.284 15.9949 174.76 15.6881 174.311 15.2886C 173.864 14.8975 173.506 14.4166 173.262 13.878C 173.011 13.2946 172.886 12.6657 172.895 12.0317L 172.895 7.25014C 172.874 6.02323 173.391 4.84727 174.311 4.02439C 174.76 3.62557 175.284 3.31883 175.854 3.12202C 176.471 2.90921 177.121 2.80393 177.774 2.81085L 177.816 2.79011ZM 206.273 16.471L 206.273 2.94568L 207.648 2.94568L 207.648 8.89931L 210.198 8.89931C 210.435 8.89677 210.67 8.86895 210.901 8.81633C 211.154 8.76218 211.396 8.66384 211.614 8.52591C 211.869 8.36089 212.09 8.14973 212.265 7.90358C 212.488 7.58554 212.662 7.23582 212.779 6.86636L 214.091 2.95605L 215.423 2.95605L 214.175 6.84562C 213.991 7.43896 213.719 8.00182 213.367 8.51554C 213.086 8.93979 212.668 9.25776 212.181 9.41792C 212.749 9.54425 213.245 9.8824 213.566 10.3618C 213.905 10.8921 214.163 11.4688 214.332 12.0732L 215.686 16.4917L 214.238 16.4917L 212.947 12.2703C 212.843 11.8868 212.684 11.52 212.475 11.1812C 212.313 10.9261 212.103 10.7042 211.856 10.5277C 211.641 10.3756 211.399 10.2664 211.142 10.2062C 210.888 10.1444 210.627 10.1131 210.366 10.1129L 207.659 10.1129L 207.659 16.5021L 206.273 16.471ZM 241.761 14.0647L 244.248 10.2892L 249.106 2.94568L 250.481 2.94568L 250.481 16.4917L 249.106 16.4917L 249.106 5.30016L 249.022 5.30016L 246.378 9.33494L 241.646 16.4917L 240.271 16.4917L 240.271 2.94568L 241.667 2.94568L 241.667 14.0647L 241.761 14.0647ZM 279.179 0.0311203C 279.236 0.391734 279.418 0.721659 279.694 0.964616C 280.323 1.49149 281.246 1.49149 281.876 0.964616C 282.145 0.712175 282.316 0.374491 282.359 0.010376L 283.408 0.010376C 283.363 0.279006 283.293 0.542906 283.198 0.798662C 283.093 1.08232 282.932 1.343 282.726 1.5662C 282.5 1.81228 282.225 2.00995 281.918 2.14704C 281.538 2.30976 281.126 2.38767 280.711 2.37523C 280.287 2.38598 279.865 2.30822 279.473 2.14704C 279.158 2.01434 278.875 1.81625 278.644 1.5662C 278.438 1.34332 278.277 1.08255 278.172 0.798662C 278.077 0.545476 278.021 0.279862 278.004 0.010376L 279.179 0.0311203ZM 277.27 14.0646L 279.757 10.2892L 284.625 2.9353L 286 2.9353L 286 16.4917L 284.604 16.4917L 284.604 5.30016L 284.521 5.30016L 281.876 9.33494L 277.144 16.4917L 275.769 16.4917L 275.769 2.94567L 277.165 2.94567L 277.165 14.0646L 277.27 14.0646Z"/>
<path id="path2_fill" fill-rule="evenodd" d="M 53 49.8689L 53 1.78142C 53 0.797814 52.4546 0 51.7809 0L 1.21913 0C 0.5454 0 0 0.808743 0 1.78142L 0 52C 1.06941 50.9945 2.45964 49.6831 3.88196 48.2295C 5.84699 46.2833 7.66318 44.1861 9.31457 41.9563C 10.3198 43.1475 11.6566 44.6229 13.1751 46.1858C 14.6937 47.7486 15.9128 48.929 17.025 49.9344L 17.5276 49.4863C 18.3725 48.7978 16.9609 49.9563 20.6396 46.7432C 24.3184 43.5301 32.0716 35.3661 33.6437 32.0219C 37.9427 38.0328 46.4124 45.235 52.5508 49.4317L 53 49.8689Z"/>
<path id="path3_fill" d="M 7 14C 10.866 14 14 10.866 14 7C 14 3.13401 10.866 0 7 0C 3.13401 0 0 3.13401 0 7C 0 10.866 3.13401 14 7 14Z"/>
<path id="path4_fill" fill-rule="evenodd" d="M 0 44L 53 44L 53 17.2684L 52.5302 16.8248C 46.4017 12.7691 37.9456 5.80893 33.6535 0C 32.084 3.23188 24.3219 11.0898 20.6277 14.2583C 16.9335 17.4268 18.3642 16.2122 17.5208 16.8776L 17.0189 17.3106C 15.9512 16.3389 14.5846 15.0927 13.1753 13.688C 11.7659 12.2832 10.3245 10.7518 9.32091 9.60058C 7.67244 11.7557 5.85916 13.7824 3.89706 15.663C 2.46636 17.0888 1.11039 18.3562 7.58638e-15 19.3385L 0 44Z"/>
<path id="path5_fill" fill-rule="evenodd" d="M 8 7.43517C 6.89043 6.49813 5.47018 5.29629 4.00555 3.94166C 2.54092 2.58703 1.043 1.11018 0 0C 0 0.162963 0 0.325925 0 0.499073C 0.321775 4.51203 3.16227 9.31942 5.45908 8.98331C 6.46508 8.73089 7.35593 8.18811 8 7.43517Z"/>
<path id="path6_fill" fill-rule="evenodd" d="M 20 22L 20 18.257L 19.5143 17.7877C 13.1788 13.4972 4.43709 6.13408 0 0C 0.370149 3.40346 1.56441 6.66183 3.47682 9.48603C 7.91391 16.6145 15.0441 21.933 20 22Z"/>
<path id="path7_fill" fill-rule="evenodd" d="M 0 3.28851C 0.552051 3.11026 1.12981 3.01422 1.71279 3.0038L 5.38457 0.624445C 4.92667 0.488344 4.45114 0.413064 3.97152 0.400745C 2.58902 0.383763 1.22393 0.69482 0 1.30571L 0 3.33935L 0 3.28851ZM 5.35256 0.614258L 5.56666 0.685436C 6.2709 0.954162 6.94215 1.29512 7.56848 1.70225C 7.90245 1.92846 8.2614 2.11939 8.63897 2.27167C 8.92751 2.37161 9.23117 2.42655 9.53818 2.43436C 10.3577 2.44094 11.1699 2.28871 11.9254 1.98696C 12.8032 1.66158 13.3598 1.30569 14.1841 0.970144C 15.3104 0.428828 16.5623 0.16651 17.8238 0.207532C 18.3794 0.221408 18.929 0.321 19.4509 0.502409C 20.1552 0.771061 20.8265 1.11202 21.4527 1.51923C 21.7869 1.74509 22.1459 1.93601 22.5232 2.08864C 22.8118 2.18841 23.1154 2.24334 23.4224 2.25133C 26.013 2.33268 27.6188 0.116018 30.9159 0.2177C 31.4715 0.231756 32.021 0.331342 32.543 0.512577C 33.2472 0.78145 33.9184 1.1224 34.5448 1.52939C 34.879 1.75533 35.2379 1.94625 35.6153 2.09881C 35.9038 2.19892 36.2075 2.25387 36.5145 2.2615C 37.311 2.24917 38.097 2.08673 38.8268 1.7836C 39.7046 1.45822 40.2613 1.10233 41.0855 0.766781C 42.2118 0.225465 43.4637 -0.0368536 44.7252 0.0041682C 45.2808 0.0184032 45.8303 0.117984 46.3524 0.299045C 47.0567 0.56755 47.728 0.908522 48.3542 1.31586C 48.6883 1.5418 49.0473 1.73272 49.4247 1.88528C 49.7133 1.98504 50.0169 2.03998 50.3239 2.04797C 51.121 2.0319 51.9069 1.86601 52.6361 1.5599L 53.0001 1.41754L 53.0001 3.27832L 53.0001 3.35966C 52.2447 3.77131 51.4488 4.11187 50.6236 4.37648C 49.8545 4.60171 49.0516 4.70478 48.2471 4.68153C 47.7371 4.67606 47.2313 4.59369 46.7484 4.43749C 46.0994 4.17228 45.488 3.83067 44.9286 3.42067C 44.2649 2.9345 43.4635 2.6477 42.627 2.59705C 41.9481 2.59015 41.2734 2.7004 40.6359 2.92243C 39.255 3.38 38.3879 4.09177 36.7715 4.55951C 36.0024 4.78492 35.1994 4.88799 34.395 4.86455C 33.8849 4.85943 33.379 4.77705 32.8963 4.62052C 32.2471 4.3555 31.6357 4.01387 31.0765 3.6037C 30.4128 3.11753 29.6113 2.83073 28.7749 2.78008C 26.3235 2.7089 24.3859 4.90523 21.2172 4.81371C 20.7072 4.80859 20.2013 4.72621 19.7185 4.56968C 19.0696 4.30418 18.4583 3.96259 17.8987 3.55286C 17.235 3.06668 16.4336 2.77989 15.5972 2.72924C 14.9182 2.72211 14.2435 2.83237 13.606 3.05462C 12.2251 3.51219 11.358 4.22396 9.74157 4.6917C 8.97252 4.91711 8.16953 5.02018 7.36508 4.99674C 6.85504 4.99162 6.34912 4.90924 5.86639 4.7527C 5.21729 4.48759 4.60588 4.14597 4.04656 3.73589C 3.40811 3.30439 2.65547 3.05083 1.87346 3.00378L 1.71289 3.00378L 5.35256 0.614258Z"/>
<path id="path8_fill" fill-rule="evenodd" d="M 0.0106683 3.90713C 0.578183 3.69061 1.17182 3.5732 1.77093 3.55898L 5.49416 0.749785C 5.02144 0.604263 4.53336 0.531569 4.04328 0.533693C 2.6379 0.509753 1.24901 0.876772 0 1.60215L 0 4.00317L 0.0106683 3.90713ZM 5.49405 0.74979L 5.71809 0.833825C 6.43714 1.15018 7.12386 1.55266 7.7664 2.03434C 8.12041 2.30421 8.49961 2.52965 8.89723 2.70662C 9.19713 2.83934 9.5142 2.91638 9.83604 2.93472C 10.6442 2.91579 11.4414 2.72007 12.1831 2.35847C 13.0685 1.97431 13.6446 1.55413 14.4767 1.15796C 15.6249 0.515802 16.8973 0.206319 18.1786 0.25758C 18.7463 0.273205 19.3081 0.390734 19.8429 0.605728C 20.562 0.92191 21.2487 1.32441 21.8912 1.80624C 22.2453 2.07595 22.6245 2.30138 23.022 2.47852C 23.317 2.59644 23.6266 2.66126 23.9395 2.67061C 26.5852 2.76665 28.2068 0.149534 31.5887 0.269585C 32.1563 0.28521 32.7182 0.402739 33.2529 0.617733C 33.9718 0.93459 34.6584 1.33705 35.3012 1.81824C 35.6553 2.08795 36.0345 2.31338 36.4321 2.49053C 36.7303 2.61009 37.0437 2.67495 37.3602 2.68261C 38.1684 2.66399 38.9656 2.46825 39.7072 2.10637C 40.5927 1.7222 41.1688 1.30202 42.0009 0.905856C 43.149 0.263695 44.4215 -0.0457878 45.7028 0.00547316C 46.2705 0.0210974 46.8323 0.138626 47.367 0.353621C 48.0861 0.670057 48.7728 1.07254 49.4154 1.55413C 49.7695 1.82368 50.1487 2.0491 50.5462 2.22642C 50.8412 2.34414 51.1508 2.40896 51.4637 2.4185C 51.9848 2.42006 52.503 2.33097 52.9999 2.15439L 52.9999 4.55541C 52.5865 4.75993 52.1626 4.93632 51.7304 5.08363C 50.9457 5.35013 50.1279 5.47175 49.3087 5.44379C 48.7947 5.49677 48.2765 5.46033 47.7724 5.33574C 47.1124 5.0225 46.489 4.61932 45.9162 4.13523C 45.2346 3.56094 44.4189 3.22298 43.5691 3.16282C 42.8785 3.15387 42.1921 3.28397 41.5422 3.54698C 40.134 4.08721 39.2592 4.92757 37.6162 5.4798C 36.8317 5.74671 36.0138 5.86835 35.1945 5.83995C 34.6758 5.83368 34.1611 5.73648 33.669 5.55183C 33.0087 5.23914 32.3852 4.83592 31.8127 4.35132C 31.1308 3.77765 30.3153 3.43976 29.4657 3.37891C 26.9693 3.29487 25.017 5.88797 21.7845 5.77993C 21.2658 5.77346 20.7511 5.67626 20.2589 5.49181C 19.5989 5.17856 18.9755 4.77538 18.4027 4.2913C 17.7211 3.717 16.9054 3.37905 16.0556 3.31888C 15.365 3.30968 14.6785 3.43979 14.0287 3.70305C 12.6205 4.24328 11.7457 5.08363 10.1027 5.63587C 9.31815 5.90257 8.50028 6.0242 7.68105 5.99602C 7.16233 5.98955 6.64766 5.89235 6.15549 5.7079C 5.49529 5.39498 4.87183 4.99178 4.29921 4.50739C 3.61765 3.93309 2.80196 3.59514 1.95219 3.53497L 1.78149 3.53497L 5.49405 0.74979Z"/>
<path id="path9_fill" fill-rule="evenodd" d="M 1.69331 1.13774L 2.18014 0.742321C 1.70457 0.584107 1.21299 0.506827 0.719658 0.512725C 0.479928 0.497956 0.239729 0.497956 0 0.512725C 0.595502 0.569735 1.17345 0.783058 1.69331 1.13774ZM 1.69336 1.13772L 2.18019 0.74231L 2.40243 0.831597C 3.10874 1.16857 3.7829 1.59621 4.41324 2.10713C 4.74404 2.38972 5.0988 2.62916 5.47156 2.82143C 5.67997 2.91218 5.89675 2.97215 6.11714 3C 5.88431 3 5.65148 3 5.41865 3C 4.90746 2.9939 4.40028 2.89058 3.91583 2.69387C 3.26778 2.3607 2.65638 1.93227 2.09552 1.41834L 1.69336 1.13772ZM 13.8958 0.21936C 14.6625 0.325279 15.3926 0.672837 16.0124 1.22703C 16.5736 1.74032 17.1849 2.16869 17.8327 2.50256C 18.3172 2.69886 18.8244 2.80216 19.3355 2.80869C 19.5611 2.82321 19.7872 2.82321 20.0128 2.80869C 19.7996 2.77907 19.59 2.71913 19.3884 2.63011C 19.0157 2.43768 18.661 2.19825 18.3301 1.91582C 17.6998 1.4049 17.0256 0.977254 16.3193 0.640286C 15.796 0.412618 15.2457 0.287726 14.6895 0.270382C 14.4778 0.270382 14.2344 0.270382 13.9698 0.270382L 13.8958 0.21936ZM 27.0718 0.21936C 27.8384 0.325866 28.5683 0.673366 29.1884 1.22703C 29.7492 1.74118 30.3606 2.16962 31.0087 2.50256C 31.4932 2.69907 32.0004 2.80237 32.5115 2.80869C 32.7444 2.80869 32.9807 2.80869 33.2206 2.80869C 32.9966 2.78212 32.7762 2.72213 32.5645 2.63011C 32.1917 2.43776 31.837 2.19833 31.5061 1.91582C 30.8758 1.4049 30.2016 0.977254 29.4953 0.640286C 28.9719 0.412831 28.4217 0.287946 27.8655 0.270382C 27.6293 0.255599 27.3926 0.255599 27.1564 0.270382L 27.0718 0.21936ZM 40.8511 0.0152573C 41.6178 0.121176 42.3479 0.468734 42.9677 1.02293C 43.5286 1.53675 44.14 1.96517 44.788 2.29846C 45.2726 2.49455 45.7797 2.59785 46.2908 2.60459C 46.5237 2.60459 46.76 2.60459 46.9999 2.60459C 46.7795 2.57661 46.5628 2.51665 46.3543 2.42601C 45.9816 2.23358 45.6269 1.99414 45.296 1.71171C 44.6657 1.20079 43.9915 0.773151 43.2852 0.436183C 42.7618 0.20894 42.2116 0.0840615 41.6554 0.0662785C 41.3697 -0.0102533 41.1262 -0.0102533 40.8511 0.0152573Z"/>
<path id="path10_fill" fill-rule="evenodd" d="M 0 3.28807C 0.570199 3.10025 1.16819 2.9983 1.772 2.98596L 5.41208 0.629519C 4.94818 0.49465 4.46694 0.420114 3.98167 0.407974C 2.61214 0.388715 1.25887 0.689711 0.0426989 1.28409L 0.0426989 1.415L 0.0426989 3.28807L 0 3.28807ZM 5.41219 0.619435L 5.63636 0.689927C 6.35896 0.955834 7.04957 1.2934 7.69658 1.69695C 8.05119 1.92272 8.43055 2.11179 8.8281 2.26089C 9.12318 2.35996 9.43302 2.41434 9.74613 2.42201C 10.5416 2.41909 11.3287 2.26854 12.0625 1.97892C 12.9379 1.65667 13.493 1.30421 14.3149 0.971894C 15.4476 0.430788 16.7077 0.170855 17.9763 0.216625C 18.5408 0.230796 19.0992 0.329368 19.6309 0.508662C 20.3536 0.7745 21.0442 1.11207 21.6911 1.51569C 22.0459 1.74119 22.4253 1.93024 22.8227 2.07962C 23.1178 2.17837 23.4276 2.23274 23.7407 2.24075C 26.3667 2.32131 27.9145 0.125993 31.277 0.226695C 31.8415 0.240867 32.3999 0.339438 32.9316 0.518733C 33.654 0.785054 34.3446 1.1226 34.9918 1.52576C 35.3466 1.75132 35.7259 1.94038 36.1234 2.08969C 36.4184 2.18893 36.7283 2.24332 37.0414 2.25082C 37.8398 2.23542 38.627 2.07115 39.3578 1.76744C 40.2331 1.4452 40.7882 1.09274 41.6102 0.760419C 42.7428 0.219312 44.0029 -0.0406201 45.2716 0.00514987C 45.836 0.0193211 46.3945 0.117892 46.9262 0.297187C 47.6487 0.563233 48.3393 0.900795 48.9864 1.30421C 49.3411 1.52978 49.7205 1.71884 50.1179 1.86815C 50.413 1.96722 50.7229 2.0216 51.036 2.02927C 51.7079 2.02513 52.3735 1.9057 53.0001 1.67681L 53.0001 3.69086C 52.4727 3.93384 51.9268 4.13918 51.3669 4.30515C 50.5927 4.52843 49.7849 4.63048 48.9757 4.60725C 48.4603 4.60095 47.9489 4.51943 47.4599 4.36557C 46.7963 4.10246 46.169 3.76431 45.5918 3.35854C 44.909 2.87836 44.0933 2.59504 43.2434 2.54285C 42.5629 2.53591 41.8866 2.64508 41.2472 2.8651C 39.8702 3.31826 39.0162 4.02318 37.3937 4.48641C 36.6195 4.70987 35.8117 4.81193 35.0025 4.78852C 34.487 4.78254 33.9757 4.70101 33.4867 4.54683C 32.823 4.284 32.1956 3.94583 31.6186 3.53981C 30.9358 3.05962 30.1201 2.77631 29.2702 2.72412C 26.7937 2.65363 24.9042 4.8288 21.7018 4.73817C 21.1863 4.73203 20.675 4.6505 20.186 4.49648C 19.5227 4.23284 18.8955 3.89473 18.3179 3.48946C 17.6351 3.00927 16.8194 2.72596 15.9695 2.67377C 15.2889 2.66683 14.6127 2.776 13.9733 2.99601C 12.5856 3.44918 11.7423 4.15409 10.1197 4.61733C 9.34033 4.87159 8.52128 5.00094 7.69658 4.99999C 7.1811 4.99386 6.66975 4.91232 6.18077 4.75831C 5.51712 4.49529 4.88982 4.15714 4.31269 3.75128C 3.62983 3.2711 2.81415 2.98778 1.96425 2.93559L 1.79346 2.93559L 5.41219 0.619435Z"/>
<path id="path11_fill" fill-rule="evenodd" d="M 0.52865 1.23429L 0.776792 0.960008C 0.522886 0.83171 0.263206 0.734286 0 0.668579L 0.302086 0.977151L 0.52865 1.21715L 0.52865 1.23429ZM 0.528564 1.23431L 0.776706 0.960022L 1.00327 1.08002C 1.73359 1.53268 2.43159 2.10734 3.08551 2.79431L 3.29049 3.00002C 2.92295 2.95058 2.56062 2.82968 2.21161 2.64002C 1.62442 2.26437 1.06682 1.7811 0.550142 1.20002L 0.528564 1.23431ZM 14.1334 0.342834L 14.4355 0.651406C 15.0191 1.34145 15.6531 1.91704 16.3235 2.36569C 16.6726 2.55485 17.0349 2.67574 17.4024 2.72569L 17.1974 2.51998C 16.5436 1.83278 15.8456 1.25812 15.1152 0.805692C 14.7901 0.616028 14.454 0.478207 14.1118 0.394263L 14.1334 0.342834ZM 27.587 0.342834L 27.8891 0.651406C 28.4724 1.3423 29.1064 1.91795 29.7771 2.36569C 30.1262 2.55501 30.4885 2.67591 30.856 2.72569L 30.651 2.51998C 29.9969 1.83356 29.2989 1.25894 28.5688 0.805692C 28.2437 0.616136 27.9076 0.478318 27.5654 0.394263L 27.587 0.342834ZM 41.731 0L 42.033 0.308571C 42.6165 0.999039 43.2505 1.57466 43.9211 2.02286C 44.2697 2.21785 44.632 2.3445 45 2.4L 44.795 2.19429C 44.141 1.50754 43.443 0.932897 42.7127 0.48C 42.3946 0.292714 42.0658 0.154925 41.731 0.0685714L 41.731 0Z"/>
</defs>
</svg>
