<svg width="55" height="220" viewBox="0 0 55 220" version="1.1" xmlns="http://www.w3.org/2000/svg" xmlns:xlink="http://www.w3.org/1999/xlink">
<title>Group</title>
<desc>Created using Figma</desc>
<g id="Canvas" transform="translate(-3453 -238)">
<g id="Group">
<g id="Shape">
<use xlink:href="#path0_fill" transform="translate(3453 238)" fill="url(#paint0_linear)"/>
</g>
<g id="Oval">
<use xlink:href="#path1_fill" transform="translate(3488 242)" fill="#FFFFFF"/>
</g>
<g id="Shape">
<use xlink:href="#path2_fill" transform="translate(3453 414)" fill="url(#paint2_linear)"/>
</g>
<g id="Shape">
<use xlink:href="#path3_fill" transform="translate(3463 424)" fill="url(#paint3_linear)"/>
</g>
<g id="Shape">
<use xlink:href="#path4_fill" transform="translate(3489 415)" fill="url(#paint4_linear)"/>
</g>
<g id="Shape">
<use xlink:href="#path5_fill" transform="translate(3453 441)" fill="#FFFFFF"/>
</g>
<g id="Shape">
<use xlink:href="#path6_fill" transform="translate(3453 447)" fill="#1AA6E0"/>
</g>
<g id="Shape">
<use xlink:href="#path7_fill" transform="translate(3456 449)" fill="#FFFFFF"/>
</g>
<g id="Shape">
<use xlink:href="#path8_fill" transform="translate(3453 453)" fill="#1AA6E0"/>
</g>
<g id="Shape">
<use xlink:href="#path9_fill" transform="translate(3458 453)" fill="#FFFFFF"/>
</g>
</g>
</g>
<defs>
<linearGradient id="paint0_linear" x1="0" y1="0" x2="1" y2="0" gradientUnits="userSpaceOnUse" gradientTransform="matrix(-39.5299 61.2875 -16.4225 -147.522 55 63.0391)">
<stop offset="0" stop-color="#FFCC00"/>
<stop offset="1" stop-color="#F6A200"/>
</linearGradient>
<linearGradient id="paint2_linear" x1="0" y1="0" x2="1" y2="0" gradientUnits="userSpaceOnUse" gradientTransform="matrix(-21.3729 21.0389 -26.2986 -17.0983 40.7403 18.5252)">
<stop offset="0" stop-color="#00569A"/>
<stop offset="0.3" stop-color="#005496"/>
<stop offset="0.62" stop-color="#004D89"/>
<stop offset="0.95" stop-color="#004173"/>
<stop offset="1" stop-color="#003F6F"/>
</linearGradient>
<linearGradient id="paint3_linear" x1="0" y1="0" x2="1" y2="0" gradientUnits="userSpaceOnUse" gradientTransform="matrix(3.80583 7.73054 -6.87159 4.28155 1.84189 0.590739)">
<stop offset="0" stop-color="#2B83BF"/>
<stop offset="0.3" stop-color="#277FBB"/>
<stop offset="0.62" stop-color="#1A72AE"/>
<stop offset="0.95" stop-color="#045D98"/>
<stop offset="1" stop-color="#005994"/>
</linearGradient>
<linearGradient id="paint4_linear" x1="0" y1="0" x2="1" y2="0" gradientUnits="userSpaceOnUse" gradientTransform="matrix(176.446 321.969 -295.167 192.467 1044.65 781.382)">
<stop offset="0" stop-color="#2B83BF"/>
<stop offset="0.3" stop-color="#277FBB"/>
<stop offset="0.62" stop-color="#1A72AE"/>
<stop offset="0.95" stop-color="#045D98"/>
<stop offset="1" stop-color="#005994"/>
</linearGradient>
<path id="path0_fill" fill-rule="evenodd" d="M 55 203.903L 55 1.13052C 55 0.506305 54.434 0 53.7349 0L 1.26513 0C 0.565981 0 0 0.513241 0 1.13052L 0 205.255C 1.10977 204.617 2.55246 203.785 4.02845 202.862C 6.06763 201.627 7.95235 200.296 9.66606 198.881C 10.7092 199.637 12.0964 200.574 13.6723 201.565C 15.2482 202.557 16.5133 203.306 17.6675 203.944L 18.1891 203.66C 19.0658 203.223 17.6009 203.958 21.4185 201.919C 25.2361 199.88 33.2819 194.699 34.9132 192.577C 39.3745 196.391 48.1638 200.962 54.5339 203.625L 55 203.903Z"/>
<path id="path1_fill" d="M 7.5 15C 11.6421 15 15 11.6421 15 7.5C 15 3.35786 11.6421 0 7.5 0C 3.35786 0 0 3.35786 0 7.5C 0 11.6421 3.35786 15 7.5 15Z"/>
<path id="path2_fill" fill-rule="evenodd" d="M 0 44L 55 44L 55 17.2684L 54.5125 16.8248C 48.1527 12.7691 39.3775 5.80893 34.9235 0C 33.2947 3.23188 25.2397 11.0898 21.4061 14.2583C 17.5725 17.4268 19.0572 16.2122 18.1819 16.8776L 17.6612 17.3106C 16.5532 16.3389 15.135 15.0927 13.6724 13.688C 12.2099 12.2832 10.7141 10.7518 9.67264 9.60058C 7.96197 11.7557 6.08026 13.7824 4.04412 15.663C 2.55943 17.0888 1.1523 18.3562 7.87265e-15 19.3385L 0 44Z"/>
<path id="path3_fill" fill-rule="evenodd" d="M 8 7.43517C 6.89043 6.49813 5.47018 5.29629 4.00555 3.94166C 2.54092 2.58703 1.043 1.11018 0 0C 0 0.162963 0 0.325925 0 0.499073C 0.321775 4.51203 3.16227 9.31942 5.45908 8.98331C 6.46508 8.73089 7.35593 8.18811 8 7.43517Z"/>
<path id="path4_fill" fill-rule="evenodd" d="M 18.9523 20.6732L 18.9523 15.8495C 14.1276 12.5214 5.07957 6.19366 0 0C 0.389201 3.37355 0.567808 6.46983 2.57866 9.26922C 7.24412 16.3351 13.7414 20.6067 18.9523 20.6732Z"/>
<path id="path5_fill" fill-rule="evenodd" d="M 0 3.28848C 0.572883 3.11023 1.17245 3.01419 1.77742 3.00377L 5.58776 0.624415C 5.11258 0.488314 4.61911 0.413034 4.12139 0.400715C 2.68672 0.383733 1.27011 0.694789 0 1.30568L 0 3.33932L 0 3.28848ZM 5.55436 0.614258L 5.77654 0.685436C 6.50736 0.954162 7.20394 1.29512 7.85389 1.70225C 8.20047 1.92846 8.57297 2.11939 8.96478 2.27167C 9.26421 2.37161 9.57933 2.42655 9.89793 2.43436C 10.7483 2.44094 11.5913 2.28871 12.3752 1.98696C 13.2861 1.66158 13.8638 1.30569 14.7192 0.970144C 15.8879 0.428828 17.1871 0.16651 18.4962 0.207532C 19.0728 0.221408 19.6431 0.321 20.1847 0.502409C 20.9156 0.771061 21.6122 1.11202 22.2621 1.51923C 22.6089 1.74509 22.9814 1.93601 23.373 2.08864C 23.6725 2.18841 23.9875 2.24334 24.3061 2.25133C 26.9945 2.33268 28.6608 0.116018 32.0823 0.2177C 32.6589 0.231756 33.2292 0.331342 33.7709 0.512577C 34.5016 0.78145 35.1982 1.1224 35.8482 1.52939C 36.195 1.75533 36.5675 1.94625 36.9591 2.09881C 37.2585 2.19892 37.5737 2.25387 37.8923 2.2615C 38.7188 2.24917 39.5344 2.08673 40.2918 1.7836C 41.2027 1.45822 41.7804 1.10233 42.6358 0.766781C 43.8045 0.225465 45.1037 -0.0368536 46.4128 0.0041682C 46.9893 0.0184032 47.5595 0.117984 48.1013 0.299045C 48.8323 0.56755 49.5289 0.908522 50.1787 1.31586C 50.5254 1.5418 50.8979 1.73272 51.2896 1.88528C 51.589 1.98504 51.9041 2.03998 52.2227 2.04797C 53.0499 2.0319 53.8654 1.86601 54.6222 1.5599L 54.9999 1.41754L 54.9999 3.27832L 54.9999 3.35966C 54.216 3.77131 53.39 4.11187 52.5338 4.37648C 51.7356 4.60171 50.9024 4.70478 50.0676 4.68153C 49.5383 4.67606 49.0134 4.59369 48.5123 4.43749C 47.8388 4.17228 47.2043 3.83067 46.6238 3.42067C 45.9351 2.9345 45.1034 2.6477 44.2354 2.59705C 43.5308 2.59015 42.8307 2.7004 42.1692 2.92243C 40.7361 3.38 39.8363 4.09177 38.1589 4.55951C 37.3608 4.78492 36.5275 4.88799 35.6927 4.86455C 35.1634 4.85943 34.6384 4.77705 34.1375 4.62052C 33.4638 4.3555 32.8293 4.01387 32.249 3.6037C 31.5602 3.11753 30.7286 2.83073 29.8606 2.78008C 27.3166 2.7089 25.3059 4.90523 22.0177 4.81371C 21.4884 4.80859 20.9634 4.72621 20.4625 4.56968C 19.7891 4.30418 19.1546 3.96259 18.5739 3.55286C 17.8852 3.06668 17.0535 2.77989 16.1855 2.72924C 15.4809 2.72211 14.7808 2.83237 14.1193 3.05462C 12.6863 3.51219 11.7864 4.22396 10.109 4.6917C 9.31093 4.91711 8.47763 5.02018 7.64283 4.99674C 7.11353 4.99162 6.58852 4.90924 6.08758 4.7527C 5.41399 4.48759 4.7795 4.14597 4.19908 3.73589C 3.53653 3.30439 2.7555 3.05083 1.94398 3.00378L 1.77734 3.00378L 5.55436 0.614258Z"/>
<path id="path6_fill" fill-rule="evenodd" d="M 0.0110709 3.90713C 0.600001 3.69061 1.21604 3.5732 1.83776 3.55898L 5.70149 0.749785C 5.21093 0.604263 4.70443 0.531569 4.19585 0.533693C 2.73744 0.509753 1.29615 0.876772 0 1.60215L 0 4.00317L 0.0110709 3.90713ZM 5.70153 0.74979L 5.93402 0.833825C 6.68021 1.15018 7.39284 1.55266 8.05963 2.03434C 8.42699 2.30421 8.82051 2.52965 9.23314 2.70662C 9.54435 2.83934 9.87338 2.91638 10.2074 2.93472C 11.046 2.91579 11.8733 2.72007 12.643 2.35847C 13.5618 1.97431 14.1597 1.55413 15.0232 1.15796C 16.2147 0.515802 17.5351 0.206319 18.8648 0.25758C 19.4539 0.273205 20.0369 0.390734 20.5918 0.605728C 21.3381 0.92191 22.0507 1.32441 22.7174 1.80624C 23.0849 2.07595 23.4784 2.30138 23.8909 2.47852C 24.197 2.59644 24.5183 2.66126 24.843 2.67061C 27.5886 2.76665 29.2714 0.149534 32.7808 0.269585C 33.3699 0.28521 33.953 0.402739 34.5079 0.617733C 35.2539 0.93459 35.9665 1.33705 36.6335 1.81824C 37.001 2.08795 37.3945 2.31338 37.807 2.49053C 38.1165 2.61009 38.4417 2.67495 38.7702 2.68261C 39.6089 2.66399 40.4361 2.46825 41.2058 2.10637C 42.1246 1.7222 42.7225 1.30202 43.586 0.905856C 44.7775 0.263695 46.0979 -0.0457878 47.4276 0.00547316C 48.0167 0.0210974 48.5997 0.138626 49.1546 0.353621C 49.9008 0.670057 50.6134 1.07254 51.2802 1.55413C 51.6478 1.82368 52.0413 2.0491 52.4537 2.22642C 52.7599 2.34414 53.0812 2.40896 53.4058 2.4185C 53.9466 2.42006 54.4844 2.33097 55 2.15439L 55 4.55541C 54.5711 4.75993 54.1311 4.93632 53.6826 5.08363C 52.8684 5.35013 52.0197 5.47175 51.1695 5.44379C 50.6362 5.49677 50.0985 5.46033 49.5753 5.33574C 48.8904 5.0225 48.2434 4.61932 47.649 4.13523C 46.9417 3.56094 46.0952 3.22298 45.2134 3.16282C 44.4967 3.15387 43.7844 3.28397 43.1099 3.54698C 41.6486 4.08721 40.7408 4.92757 39.0359 5.4798C 38.2217 5.74671 37.3729 5.86835 36.5228 5.83995C 35.9845 5.83368 35.4504 5.73648 34.9397 5.55183C 34.2544 5.23914 33.6074 4.83592 33.0133 4.35132C 32.3057 3.77765 31.4594 3.43976 30.5777 3.37891C 27.9872 3.29487 25.9612 5.88797 22.6067 5.77993C 22.0684 5.77346 21.5343 5.67626 21.0236 5.49181C 20.3386 5.17856 19.6917 4.77538 19.0973 4.2913C 18.39 3.717 17.5435 3.37905 16.6617 3.31888C 15.945 3.30968 15.2326 3.43979 14.5582 3.70305C 13.0969 4.24328 12.1891 5.08363 10.4841 5.63587C 9.66993 5.90257 8.82121 6.0242 7.97106 5.99602C 7.43277 5.98955 6.89867 5.89235 6.38793 5.7079C 5.70281 5.39498 5.05583 4.99178 4.4616 4.50739C 3.75432 3.93309 2.90785 3.59514 2.02601 3.53497L 1.84888 3.53497L 5.70153 0.74979Z"/>
<path id="path7_fill" fill-rule="evenodd" d="M 1.76537 1.13774L 2.27291 0.742321C 1.77711 0.584107 1.2646 0.506827 0.750281 0.512725C 0.500351 0.497956 0.249931 0.497956 0 0.512725C 0.620842 0.569735 1.22338 0.783058 1.76537 1.13774ZM 1.76538 1.13772L 2.27292 0.74231L 2.50463 0.831597C 3.24099 1.16857 3.94383 1.59621 4.601 2.10713C 4.94587 2.38972 5.31573 2.62916 5.70436 2.82143C 5.92164 2.91218 6.14764 2.97215 6.37741 3C 6.13467 3 5.89193 3 5.64919 3C 5.11626 2.9939 4.58749 2.89058 4.08243 2.69387C 3.4068 2.3607 2.76938 1.93227 2.18466 1.41834L 1.76538 1.13772ZM 14.4871 0.21933C 15.2864 0.325249 16.0476 0.672806 16.6938 1.227C 17.2789 1.74029 17.9162 2.16866 18.5915 2.50253C 19.0967 2.69883 19.6254 2.80213 20.1583 2.80866C 20.3935 2.82318 20.6292 2.82318 20.8645 2.80866C 20.6421 2.77904 20.4236 2.7191 20.2135 2.63008C 19.8249 2.43765 19.4551 2.19822 19.1101 1.91579C 18.4529 1.40487 17.7501 0.977224 17.0137 0.640255C 16.4681 0.412587 15.8944 0.287695 15.3146 0.270351C 15.0939 0.270351 14.8401 0.270351 14.5643 0.270351L 14.4871 0.21933ZM 28.2239 0.21933C 29.0231 0.325835 29.7841 0.673335 30.4306 1.227C 31.0152 1.74115 31.6526 2.16959 32.3284 2.50253C 32.8335 2.69904 33.3622 2.80234 33.8951 2.80866C 34.1379 2.80866 34.3843 2.80866 34.6344 2.80866C 34.4008 2.78209 34.171 2.7221 33.9503 2.63008C 33.5617 2.43773 33.1918 2.1983 32.8469 1.91579C 32.1898 1.40487 31.4869 0.977224 30.7506 0.640255C 30.2049 0.4128 29.6312 0.287915 29.0514 0.270351C 28.8051 0.255569 28.5584 0.255569 28.3121 0.270351L 28.2239 0.21933ZM 42.5896 0.0152573C 43.389 0.121176 44.1501 0.468734 44.7963 1.02293C 45.3811 1.53675 46.0185 1.96517 46.6941 2.29846C 47.1993 2.49455 47.728 2.59785 48.2608 2.60459C 48.5036 2.60459 48.75 2.60459 49.0001 2.60459C 48.7703 2.57661 48.5444 2.51665 48.327 2.42601C 47.9385 2.23358 47.5686 1.99414 47.2237 1.71171C 46.5665 1.20079 45.8637 0.773151 45.1273 0.436183C 44.5816 0.20894 44.008 0.0840615 43.4282 0.0662785C 43.1302 -0.0102533 42.8765 -0.0102533 42.5896 0.0152573Z"/>
<path id="path8_fill" fill-rule="evenodd" d="M 0 3.28807C 0.591716 3.10025 1.21227 2.9983 1.83887 2.98596L 5.61631 0.629519C 5.1349 0.49465 4.6355 0.420114 4.13192 0.407974C 2.71071 0.388715 1.30637 0.689711 0.0443102 1.28409L 0.0443102 1.415L 0.0443102 3.28807L 0 3.28807ZM 5.61637 0.619435L 5.849 0.689927C 6.59887 0.955834 7.31555 1.2934 7.98697 1.69695C 8.35496 1.92272 8.74864 2.11179 9.16118 2.26089C 9.4674 2.35996 9.78893 2.41434 10.1139 2.42201C 10.9393 2.41909 11.7561 2.26854 12.5177 1.97892C 13.426 1.65667 14.0021 1.30421 14.855 0.971894C 16.0304 0.430788 17.3381 0.170855 18.6546 0.216625C 19.2404 0.230796 19.8199 0.329368 20.3717 0.508662C 21.1216 0.7745 21.8382 1.11207 22.5096 1.51569C 22.8778 1.74119 23.2714 1.93024 23.6838 2.07962C 23.9902 2.17837 24.3116 2.23274 24.6365 2.24075C 27.3616 2.32131 28.9678 0.125993 32.4573 0.226695C 33.043 0.240867 33.6225 0.339438 34.1743 0.518733C 34.9239 0.785054 35.6406 1.1226 36.3122 1.52576C 36.6804 1.75132 37.074 1.94038 37.4865 2.08969C 37.7926 2.18893 38.1142 2.24332 38.4391 2.25082C 39.2676 2.23542 40.0846 2.07115 40.843 1.76744C 41.7513 1.4452 42.3273 1.09274 43.1803 0.760419C 44.3557 0.219312 45.6634 -0.0406201 46.9799 0.00514987C 47.5656 0.0193211 48.1452 0.117892 48.6969 0.297187C 49.4467 0.563233 50.1634 0.900795 50.8349 1.30421C 51.203 1.52978 51.5967 1.71884 52.0091 1.86815C 52.3153 1.96722 52.6369 2.0216 52.9618 2.02927C 53.6591 2.02513 54.3498 1.9057 55.0001 1.67681L 55.0001 3.69086C 54.4528 3.93384 53.8862 4.13918 53.3052 4.30515C 52.5018 4.52843 51.6635 4.63048 50.8238 4.60725C 50.2889 4.60095 49.7583 4.51943 49.2508 4.36557C 48.5622 4.10246 47.9112 3.76431 47.3122 3.35854C 46.6036 2.87836 45.7572 2.59504 44.8752 2.54285C 44.169 2.53591 43.4672 2.64508 42.8037 2.8651C 41.3747 3.31826 40.4885 4.02318 38.8047 4.48641C 38.0013 4.70987 37.1631 4.81193 36.3233 4.78852C 35.7884 4.78254 35.2577 4.70101 34.7503 4.54683C 34.0615 4.284 33.4105 3.94583 32.8117 3.53981C 32.1031 3.05962 31.2567 2.77631 30.3747 2.72412C 27.8047 2.65363 25.844 4.8288 22.5207 4.73817C 21.9858 4.73203 21.4551 4.6505 20.9477 4.49648C 20.2593 4.23284 19.6084 3.89473 19.0091 3.48946C 18.3005 3.00927 17.454 2.72596 16.5721 2.67377C 15.8658 2.66683 15.1641 2.776 14.5006 2.99601C 13.0605 3.44918 12.1854 4.15409 10.5016 4.61733C 9.69274 4.87159 8.84279 5.00094 7.98697 4.99999C 7.45204 4.99386 6.92139 4.91232 6.41395 4.75831C 5.72526 4.49529 5.07429 4.15714 4.47538 3.75128C 3.76676 3.2711 2.9203 2.98778 2.03832 2.93559L 1.86108 2.93559L 5.61637 0.619435Z"/>
<path id="path9_fill" fill-rule="evenodd" d="M 0.552146 1.23429L 0.811316 0.960008C 0.546126 0.83171 0.274905 0.734286 0 0.668579L 0.315512 0.977151L 0.552146 1.21715L 0.552146 1.23429ZM 0.552246 1.23428L 0.811417 0.959991L 1.04805 1.07999C 1.81083 1.53265 2.53985 2.10731 3.22283 2.79428L 3.43693 2.99999C 3.05305 2.95055 2.67462 2.82965 2.3101 2.63999C 1.6968 2.26434 1.11442 1.78107 0.574783 1.19999L 0.552246 1.23428ZM 14.7615 0.342865L 15.0771 0.651436C 15.6866 1.34148 16.3488 1.91707 17.049 2.36572C 17.4136 2.55488 17.792 2.67577 18.1758 2.72572L 17.9617 2.52001C 17.2788 1.83281 16.5498 1.25815 15.787 0.805722C 15.4475 0.616059 15.0964 0.478237 14.739 0.394294L 14.7615 0.342865ZM 28.8131 0.342865L 29.1286 0.651436C 29.7378 1.34233 30.4 1.91798 31.1005 2.36572C 31.4651 2.55505 31.8435 2.67594 32.2274 2.72572L 32.0133 2.52001C 31.3301 1.83359 30.6011 1.25897 29.8385 0.805722C 29.499 0.616167 29.1479 0.478348 28.7905 0.394294L 28.8131 0.342865ZM 43.5857 0L 43.9012 0.308571C 44.5106 0.999039 45.1727 1.57466 45.8732 2.02286C 46.2373 2.21785 46.6157 2.3445 47 2.4L 46.7859 2.19429C 46.1028 1.50754 45.3738 0.932897 44.6111 0.48C 44.2789 0.292714 43.9354 0.154925 43.5857 0.0685714L 43.5857 0Z"/>
</defs>
</svg>
